<?xml version="1.0" standalone="no"?>
<!DOCTYPE svg PUBLIC "-//W3C//DTD SVG 20010904//EN"
 "http://www.w3.org/TR/2001/REC-SVG-20010904/DTD/svg10.dtd">
<svg version="1.0" xmlns="http://www.w3.org/2000/svg"
 width="1024.000000pt" height="1024.000000pt" viewBox="0 0 1024.000000 1024.000000"
 preserveAspectRatio="xMidYMid meet">

<g transform="translate(0.000000,1024.000000) scale(0.100000,-0.100000)"
fill="#000000" stroke="none">
<path d="M0 7987 c0 -1739 3 -2256 12 -2265 9 -9 9 -12 0 -12 -16 0 -16 -32 0
-48 9 -9 9 -12 0 -12 -9 0 -12 -23 -11 -82 0 -46 3 -93 6 -105 7 -33 24 -28
19 5 -4 23 -3 24 7 11 7 -9 18 -14 25 -11 7 2 19 -2 28 -9 12 -10 18 -9 32 6
16 17 16 18 0 6 -14 -10 -18 -9 -26 6 -5 10 -6 27 -2 38 7 20 7 20 14 -2 4
-11 13 -24 21 -27 20 -7 19 -36 0 -36 -8 0 -15 -5 -15 -11 0 -5 -5 -7 -10 -4
-6 3 -10 1 -10 -4 0 -6 6 -11 14 -11 8 0 17 -6 20 -12 3 -8 5 -7 3 2 -1 8 8
25 21 38 22 22 38 30 28 13 -7 -10 13 -9 29 1 17 10 39 -8 30 -23 -5 -8 -5
-11 0 -7 4 4 13 0 20 -9 15 -20 54 -25 51 -7 -3 23 -15 27 -32 13 -14 -12 -16
-11 -13 6 3 14 13 20 30 21 15 1 34 4 43 7 10 4 15 3 11 -3 -3 -6 0 -10 9 -10
8 0 17 6 19 13 3 6 6 -2 6 -19 1 -36 33 -56 68 -43 20 7 21 6 13 -16 -8 -21
-6 -25 8 -25 10 0 13 -3 6 -8 -18 -12 -24 -52 -7 -52 8 0 12 4 9 9 -3 5 0 11
8 14 17 7 15 -15 -3 -37 -8 -9 -11 -19 -7 -23 3 -3 6 -1 6 6 0 9 4 9 14 -1 8
-7 11 -17 8 -23 -3 -5 2 -4 11 4 12 9 17 10 17 2 0 -7 4 -10 9 -7 5 3 12 -2
15 -11 6 -15 8 -15 16 -3 7 12 11 12 20 2 5 -6 7 -10 4 -7 -11 7 -32 -27 -27
-42 3 -7 9 -10 14 -7 5 3 8 0 7 -8 -2 -7 3 -12 10 -11 6 2 12 -2 12 -7 0 -6 5
-10 10 -10 7 0 7 7 0 23 -10 20 -10 20 3 5 8 -10 17 -16 21 -13 3 3 2 -1 -4
-7 -14 -17 -12 -28 5 -28 21 0 14 -24 -10 -32 -19 -6 -19 -6 2 -13 12 -4 19
-13 17 -20 -3 -7 2 -19 10 -28 8 -8 12 -18 8 -22 -4 -5 -1 -5 6 -1 11 6 10 12
-4 27 -17 19 -17 19 -1 13 10 -3 17 -3 16 2 -3 19 1 34 10 34 5 0 8 -11 7 -24
-3 -28 21 -44 30 -21 4 8 9 15 13 15 4 0 -2 -20 -13 -45 -12 -25 -27 -45 -33
-45 -18 0 -16 -17 2 -24 10 -4 19 2 24 16 l8 22 5 -22 c4 -14 11 -20 20 -17 9
4 19 -4 26 -20 16 -35 15 -38 -8 -32 -11 3 -20 1 -20 -4 0 -14 -20 -11 -37 6
-8 9 -18 13 -22 10 -3 -4 2 -11 12 -17 18 -9 17 -11 -5 -36 -18 -21 -19 -23
-3 -12 11 8 23 20 27 25 5 6 8 4 8 -5 0 -11 2 -12 8 -3 4 7 22 16 40 19 25 5
32 3 32 -10 0 -9 -6 -16 -12 -16 -9 0 -8 -3 2 -9 8 -6 17 -8 21 -5 4 2 9 -3
13 -11 6 -16 -19 -21 -28 -6 -7 10 -31 9 -42 -2 -4 -4 2 -7 14 -7 12 0 22 -4
22 -10 0 -5 8 -10 18 -10 21 0 49 -17 41 -25 -4 -3 -16 -7 -27 -10 -16 -3 -19
0 -15 13 6 14 4 15 -8 5 -8 -6 -26 -10 -41 -9 -19 2 -25 -1 -21 -11 3 -8 0
-12 -8 -10 -8 2 -11 2 -6 0 4 -3 5 -9 1 -14 -3 -5 0 -9 5 -9 6 0 11 4 11 8 0
5 16 9 35 9 20 0 32 -4 28 -10 -3 -6 -1 -7 5 -3 6 3 24 8 40 10 22 2 29 0 25
-10 -3 -9 -15 -12 -29 -10 -16 3 -24 0 -24 -10 0 -8 -4 -14 -9 -14 -5 0 -4
-10 2 -23 13 -28 33 -31 33 -5 0 10 -4 18 -8 18 -18 0 -6 16 13 17 15 1 20 -3
17 -15 -5 -18 19 -49 29 -39 3 4 1 20 -5 36 -8 23 -8 30 1 28 20 -4 26 -20 21
-57 l-5 -35 20 25 c19 23 20 23 17 4 -6 -28 8 -48 28 -41 16 6 20 -2 16 -37
-1 -11 3 -15 9 -12 6 4 11 16 11 27 0 19 1 19 16 4 13 -13 19 -14 25 -4 4 7 5
19 1 27 -3 10 0 13 9 10 8 -3 13 -10 12 -16 -3 -11 20 -27 41 -32 5 -1 13 4
18 12 6 9 7 5 3 -11 -5 -14 -3 -21 3 -17 12 7 44 -28 35 -39 -5 -4 3 -4 16 0
21 6 22 5 10 -8 -12 -13 -16 -13 -30 -1 -8 8 -22 14 -29 14 -7 0 -10 3 -7 7
10 10 -13 32 -28 27 -7 -3 -16 -1 -19 4 -6 10 -76 -8 -76 -20 0 -4 14 -2 31 4
34 12 52 -2 41 -31 -4 -10 -7 -11 -10 -3 -2 7 -8 10 -13 6 -13 -7 -1 -24 16
-24 8 0 18 12 21 26 6 24 8 24 23 9 14 -14 14 -17 1 -25 -12 -8 -12 -10 5 -11
19 0 19 -1 1 -8 -17 -7 -16 -9 8 -24 23 -15 40 -47 18 -33 -5 3 -9 -1 -9 -9 0
-8 6 -16 13 -19 8 -3 12 -11 10 -18 -1 -7 -1 -10 1 -6 2 4 12 4 21 1 11 -3 8
1 -5 11 -29 22 -13 42 32 40 49 -3 63 10 46 38 -13 21 -13 22 2 9 21 -17 22
-40 2 -47 -8 -4 -15 -13 -15 -21 0 -8 5 -11 10 -8 5 3 10 1 10 -4 0 -6 7 -11
15 -11 8 0 15 -5 15 -11 0 -6 7 -9 15 -5 9 3 15 0 15 -8 0 -8 -6 -16 -12 -18
-7 -3 -3 -7 9 -10 19 -5 20 -3 11 30 -12 42 -38 67 -50 49 -5 -8 -8 -8 -8 -1
0 19 12 24 34 12 27 -15 80 -17 63 -3 -6 6 -16 16 -23 24 -9 11 -12 12 -19 1
-5 -9 -4 -11 3 -6 7 4 12 2 12 -4 0 -7 -5 -10 -11 -8 -6 2 -10 7 -10 11 1 4 1
13 1 21 0 9 9 14 20 13 11 -1 20 -8 20 -16 0 -12 3 -11 18 2 12 11 22 13 28 7
5 -5 25 -11 43 -13 20 -3 37 -11 43 -23 9 -18 8 -18 -6 0 -9 11 -16 15 -16 9
0 -11 -56 -11 -67 1 -3 3 -11 6 -17 6 -6 0 -1 -7 11 -15 14 -10 20 -22 17 -33
-5 -15 -4 -15 6 1 9 14 15 15 25 7 8 -7 15 -7 19 -1 8 12 45 2 72 -19 17 -12
20 -20 12 -33 -14 -26 1 -40 38 -34 33 6 54 -6 34 -18 -5 -3 -10 -11 -10 -16
0 -6 4 -8 9 -5 5 4 7 -3 4 -14 -4 -14 0 -20 10 -20 22 0 10 -36 -20 -60 -23
-18 -23 -19 -5 -29 11 -6 22 -7 26 -4 3 3 6 -1 6 -11 0 -11 -7 -16 -17 -14
-14 2 -17 -3 -15 -26 2 -17 0 -26 -6 -22 -6 3 -13 2 -16 -3 -4 -5 2 -8 11 -6
18 2 43 -12 43 -25 0 -3 -14 -7 -30 -7 -39 0 -43 -5 -31 -37 10 -25 41 -37 41
-16 0 5 -5 9 -11 7 -6 -1 -14 4 -16 11 -4 10 6 12 41 8 37 -5 46 -3 46 10 0 8
-4 13 -9 9 -5 -3 -13 0 -17 6 -10 17 -13 69 -3 63 5 -3 7 -10 4 -15 -4 -5 1
-9 9 -9 9 0 16 -4 16 -9 0 -5 9 -7 20 -4 22 6 24 11 11 32 -6 9 -11 10 -15 2
-9 -14 -26 -14 -26 -1 0 5 5 9 11 7 6 -1 14 4 17 12 3 8 0 11 -7 7 -6 -4 -11
-2 -11 3 0 6 -7 11 -15 11 -8 0 -15 6 -15 13 0 6 -3 23 -7 36 -4 16 -3 22 5
17 6 -3 16 2 22 11 8 15 9 12 4 -11 -6 -23 -4 -27 7 -21 11 6 11 5 2 -5 -10
-10 -7 -19 12 -42 14 -16 25 -34 25 -39 0 -6 4 -8 8 -5 5 3 7 -5 6 -17 -1 -12
-3 -26 -3 -31 -1 -4 -8 -6 -16 -2 -15 5 -21 -9 -7 -18 13 -8 43 22 40 40 -2 9
4 19 12 21 13 4 13 3 0 -6 -8 -6 -10 -11 -4 -11 7 0 10 -14 7 -36 -4 -35 -3
-36 23 -30 17 5 35 1 51 -10 14 -9 22 -11 19 -5 -5 7 1 11 14 11 12 0 18 4 15
11 -4 6 -19 7 -36 4 -18 -4 -29 -2 -29 4 0 6 7 7 17 4 11 -4 14 -3 9 5 -5 8 2
12 20 12 15 0 24 -3 21 -7 -10 -9 14 -34 25 -26 6 3 9 0 6 -8 -3 -8 -11 -14
-19 -14 -8 0 -14 -9 -14 -20 0 -13 6 -19 18 -18 15 1 17 -4 13 -23 -5 -18 -3
-22 8 -18 8 3 17 0 21 -6 4 -7 -2 -14 -14 -17 -12 -3 -21 -10 -21 -15 0 -6 7
-8 15 -4 17 6 21 -9 5 -19 -5 -3 -10 -11 -10 -17 0 -6 3 -9 6 -5 3 3 15 -2 26
-13 27 -25 64 -30 83 -11 14 14 17 14 25 1 7 -11 3 -18 -18 -26 -15 -7 -35
-10 -45 -8 -9 1 -15 -1 -12 -7 4 -5 11 -7 16 -3 6 3 13 -4 16 -16 3 -13 11
-19 20 -16 8 3 11 1 8 -4 -3 -6 0 -10 9 -10 8 0 22 -3 31 -6 10 -4 15 -2 13 7
-2 7 5 15 14 17 22 4 14 -22 -14 -52 -25 -27 -23 -41 2 -16 11 11 27 20 36 20
14 0 15 2 3 17 -13 15 -12 15 9 4 22 -12 28 -6 23 22 -3 15 32 2 36 -13 4 -13
3 -13 -7 0 -10 13 -11 12 -7 -6 2 -12 1 -28 -4 -36 -6 -10 -2 -21 11 -33 18
-16 20 -17 20 -2 0 10 -4 17 -10 17 -14 0 -12 27 2 33 7 2 27 -1 45 -8 17 -8
34 -11 37 -7 11 10 45 12 51 3 7 -12 -24 -22 -52 -17 -16 3 -20 1 -16 -10 3
-8 11 -14 19 -14 8 0 14 -5 14 -11 0 -5 -8 -9 -17 -7 -10 1 -18 -2 -18 -7 0
-6 3 -9 8 -7 4 1 7 -2 7 -8 0 -5 5 -10 11 -10 5 0 8 4 4 10 -3 5 7 3 22 -5 25
-13 28 -13 31 0 5 22 21 18 19 -4 0 -11 -4 -18 -8 -16 -3 3 -15 -2 -25 -10
-18 -14 -18 -14 4 -10 12 2 22 2 22 0 0 -6 -56 -35 -61 -32 -2 1 2 -3 10 -10
10 -9 17 -9 29 4 11 10 17 12 20 4 6 -17 20 -13 18 6 0 10 6 19 14 20 22 5 23
-33 2 -43 -9 -4 -20 -8 -24 -8 -3 -1 -10 -5 -15 -10 -5 -5 -3 -6 4 -2 8 4 17
-2 24 -17 6 -13 23 -29 37 -35 21 -9 22 -11 5 -8 -16 3 -20 0 -16 -13 5 -12 3
-13 -7 -4 -13 12 -40 7 -40 -9 0 -5 6 -6 13 -2 9 6 9 5 0 -8 -7 -8 -9 -19 -5
-23 10 -12 -20 5 -40 22 -15 13 -16 13 -14 -3 2 -10 8 -20 14 -22 7 -2 9 -8 6
-14 -12 -18 29 -3 53 21 13 13 27 20 31 17 3 -4 0 -11 -8 -16 -8 -6 -10 -10
-5 -10 6 0 3 -5 -5 -10 -11 -7 -6 -8 18 -4 20 4 32 2 32 -4 0 -16 -18 -24 -25
-12 -5 8 -11 8 -20 0 -9 -7 -15 -8 -19 -1 -4 6 -13 8 -21 5 -8 -4 -12 -10 -9
-15 3 -5 -2 -6 -10 -3 -11 4 -16 0 -16 -14 0 -12 -5 -24 -10 -27 -11 -7 -4
-25 9 -25 4 0 12 10 18 23 10 22 53 35 53 16 0 -6 4 -7 10 -4 5 3 10 2 10 -4
0 -6 -11 -13 -25 -17 -26 -6 -32 -18 -15 -29 6 -4 8 -11 5 -16 -4 -5 -1 -9 6
-9 7 0 5 -8 -7 -22 -10 -12 -13 -18 -6 -14 6 4 12 3 12 -2 0 -6 -7 -12 -15
-16 -8 -3 -12 -12 -9 -21 3 -8 1 -15 -5 -15 -6 0 -11 5 -11 11 0 5 -5 7 -10 4
-7 -4 -7 -13 0 -26 6 -11 8 -24 5 -29 -3 -6 -1 -10 4 -10 6 0 11 -7 11 -16 0
-9 -5 -12 -12 -8 -7 4 -8 3 -4 -4 4 -7 14 -12 22 -12 8 0 13 -4 9 -9 -3 -5 -1
-12 5 -16 5 -3 10 0 10 7 0 7 11 -14 25 -47 23 -56 56 -96 115 -138 l25 -18
-25 7 c-22 6 -23 5 -11 -10 8 -9 20 -15 27 -12 7 3 15 -2 18 -11 5 -11 2 -14
-10 -9 -8 3 -25 1 -36 -5 -17 -9 -18 -13 -7 -20 11 -7 9 -9 -6 -9 -11 -1 -37
-7 -58 -14 -20 -8 -37 -10 -37 -6 0 8 24 21 48 26 23 4 27 14 6 15 -17 0 -16
1 4 9 12 5 22 15 22 21 0 8 -5 7 -17 -2 -11 -10 -14 -10 -9 -1 4 6 4 12 1 12
-10 0 -30 -23 -38 -42 -3 -10 -11 -18 -17 -18 -6 0 -8 5 -4 12 4 7 3 8 -4 4
-6 -4 -9 -13 -5 -21 3 -8 0 -15 -6 -15 -6 0 -11 -4 -11 -10 0 -5 7 -10 15 -10
12 0 13 -4 5 -19 -12 -24 -13 -82 -1 -113 15 -39 71 -87 140 -120 56 -27 81
-32 176 -38 94 -6 101 -7 45 -10 -36 -1 -73 -3 -82 -3 -10 0 -15 -4 -12 -9 3
-5 8 -7 11 -4 3 3 12 -2 20 -10 8 -8 19 -12 24 -9 5 4 9 -1 9 -10 0 -9 5 -13
10 -10 6 4 8 10 5 15 -6 9 41 25 98 34 28 4 40 1 44 -10 4 -12 8 -13 14 -3 6
10 11 10 22 0 11 -9 17 -9 22 -1 4 6 14 8 24 5 9 -4 27 -8 41 -10 20 -3 26 1
26 16 0 14 -5 17 -18 13 -22 -7 -24 9 -3 26 9 7 14 19 11 27 -3 7 -1 13 4 13
10 0 14 -14 11 -38 -2 -10 2 -11 17 -3 16 8 21 7 26 -5 4 -9 13 -14 21 -10 8
3 15 1 15 -4 0 -6 14 4 31 22 17 18 28 28 25 22 -11 -22 -14 -64 -5 -64 5 0 9
11 9 24 0 14 5 28 10 31 6 4 9 1 8 -5 -3 -12 17 -20 52 -22 8 -1 19 -6 23 -12
4 -6 5 7 2 29 -3 22 -10 41 -15 43 -5 2 -4 9 3 17 8 9 16 10 25 3 14 -12 16
-32 2 -23 -5 3 -10 -1 -10 -9 0 -9 8 -16 18 -17 15 0 16 -1 0 -7 -15 -6 -15
-9 -2 -26 8 -11 14 -16 14 -12 0 4 7 1 15 -8 9 -8 15 -19 14 -23 -4 -21 2 -25
14 -9 12 16 13 16 13 -6 0 -13 -3 -25 -7 -28 -4 -3 -1 -11 7 -18 11 -10 15 -8
20 13 3 14 10 22 15 19 5 -3 6 -11 3 -17 -5 -8 -3 -8 7 1 7 6 18 12 24 12 6 0
6 -3 -1 -8 -16 -10 -28 -52 -15 -52 6 0 11 9 11 20 0 11 4 20 10 20 5 0 7 -7
4 -15 -4 -10 0 -13 16 -10 18 3 20 2 10 -10 -7 -8 -9 -15 -4 -15 5 0 2 -4 -6
-10 -8 -5 -11 -12 -8 -15 11 -11 30 6 24 21 -3 8 -1 14 4 14 6 0 10 -5 10 -10
0 -6 5 -9 11 -8 6 2 14 -3 16 -10 3 -7 -1 -11 -7 -10 -7 2 -14 -6 -16 -16 -1
-10 -6 -22 -11 -25 -4 -3 -9 -14 -11 -24 -3 -15 0 -16 17 -5 11 6 17 16 15 20
-3 4 0 8 5 8 6 0 11 6 11 13 0 7 9 13 20 13 11 0 19 -5 17 -11 -4 -10 21 -34
36 -35 4 0 7 9 7 21 0 11 4 17 10 14 6 -3 10 -2 10 2 0 8 46 10 60 3 12 -6 37
-5 58 2 16 6 22 4 22 -7 0 -8 -6 -14 -12 -13 -22 5 -14 -27 10 -37 23 -10 30
-25 12 -25 -5 0 -10 -8 -10 -17 0 -13 2 -15 8 -5 5 7 18 14 29 16 17 4 19 0
15 -22 -3 -20 -2 -24 7 -16 7 6 13 20 14 32 2 25 10 20 12 -8 1 -11 -3 -20 -8
-20 -5 0 -7 -11 -5 -24 5 -22 3 -23 -19 -13 -14 6 -22 16 -19 24 3 8 1 11 -4
8 -16 -10 -12 -24 13 -49 14 -14 33 -22 48 -21 34 3 36 5 17 13 -16 7 -16 8 3
21 19 11 21 11 16 -3 -4 -9 -3 -16 1 -16 4 0 8 -9 8 -20 0 -10 -2 -17 -5 -15
-2 3 -11 -1 -19 -8 -13 -10 -14 -9 -7 3 5 8 -7 3 -27 -12 -19 -15 -37 -26 -40
-25 -2 1 8 -10 24 -25 33 -33 34 -38 7 -38 -11 0 -18 -4 -14 -9 3 -6 17 -6 35
1 17 5 27 14 24 19 -3 5 3 6 12 2 11 -4 15 -2 11 4 -4 6 0 14 9 17 23 9 31 7
16 -3 -11 -6 -9 -9 6 -13 13 -4 19 -1 16 6 -6 16 49 14 69 -2 17 -15 37 -8 37
11 0 7 -4 6 -11 -3 -9 -13 -10 -12 -5 2 6 21 -26 33 -52 19 -14 -7 -24 -6 -38
4 -11 8 -16 15 -11 16 23 5 33 4 38 -4 10 -14 51 12 42 26 -4 8 -1 7 10 -1 9
-8 15 -19 14 -25 -1 -6 7 -15 18 -21 20 -11 23 -46 4 -46 -5 0 -9 -4 -9 -10 0
-11 28 -9 50 5 8 5 28 8 44 7 17 -2 28 0 25 3 -3 3 -18 6 -32 7 -15 1 -27 7
-27 14 0 8 9 8 35 0 39 -12 43 -21 17 -35 -13 -7 -22 -7 -29 0 -6 6 -15 4 -24
-7 -9 -12 -10 -15 -1 -10 6 4 12 2 12 -3 0 -6 9 -11 20 -11 11 0 20 5 20 12 0
7 5 5 13 -4 6 -9 23 -18 37 -20 25 -3 25 -3 2 -10 -13 -4 -28 -1 -36 7 -16 16
-27 9 -19 -11 3 -9 -2 -14 -15 -14 -12 0 -23 9 -27 20 -6 20 -35 28 -35 10 0
-5 7 -10 15 -10 8 0 17 -12 21 -27 9 -43 12 -50 13 -29 1 15 4 16 15 7 12 -10
17 -8 26 9 10 18 13 19 26 5 18 -17 40 -20 49 -5 3 6 11 10 17 10 7 0 6 -5 -2
-15 -7 -8 -10 -21 -7 -30 10 -26 -37 -43 -62 -22 -12 10 -13 9 -3 -9 8 -16 8
-24 0 -32 -9 -9 -9 -12 0 -12 7 0 12 5 12 11 0 6 7 9 15 5 8 -3 15 -1 15 5 0
6 5 7 10 4 6 -4 7 -12 3 -18 -5 -9 -3 -9 8 -1 8 7 22 8 34 3 28 -11 37 -11 30
2 -5 7 5 8 32 3 57 -10 75 -23 33 -24 -19 0 -41 -4 -49 -9 -14 -9 -49 4 -63
24 -5 7 -8 6 -8 -1 0 -5 6 -16 13 -23 10 -10 9 -11 -5 -6 -11 4 -18 2 -18 -4
0 -6 -4 -11 -10 -11 -5 0 -7 7 -4 15 4 10 0 15 -13 15 -27 0 -35 -10 -20 -25
17 -16 57 -29 57 -18 0 5 9 9 20 9 11 0 20 -4 20 -9 0 -20 61 -86 75 -80 8 3
13 9 10 14 -3 4 -12 6 -20 3 -14 -6 -39 29 -28 40 3 3 -1 6 -11 6 -15 0 -16 2
-3 15 21 21 135 16 122 -6 -4 -5 -15 -7 -26 -4 -10 4 -26 2 -36 -4 -16 -8 -14
-10 10 -16 16 -4 33 -2 42 5 8 6 19 9 26 5 8 -6 7 -10 -2 -16 -11 -7 -11 -9 1
-9 9 0 21 5 27 11 7 7 13 7 17 1 3 -5 -5 -13 -19 -16 -14 -4 -25 -11 -25 -17
0 -7 9 -9 23 -5 45 13 57 15 57 6 0 -5 -4 -12 -10 -15 -5 -3 -10 -1 -10 5 0 6
-5 8 -11 4 -8 -5 -6 -10 5 -16 21 -12 50 -2 40 13 -4 7 -3 9 4 5 5 -3 13 0 15
6 3 7 6 3 6 -10 1 -13 -3 -20 -9 -17 -13 8 -13 -8 0 -21 7 -7 -2 -10 -25 -10
-19 0 -35 4 -35 8 0 4 -9 8 -20 8 -17 0 -19 -3 -11 -18 7 -13 20 -17 50 -15
24 1 39 -2 36 -7 -3 -6 1 -7 10 -4 28 11 12 -20 -19 -35 -22 -11 -32 -12 -47
-3 -10 7 -19 8 -19 3 0 -10 30 -25 43 -22 5 1 6 -3 3 -8 -4 -5 -2 -12 3 -15 5
-3 12 5 15 19 6 22 9 23 31 13 14 -6 25 -15 25 -19 0 -4 3 -16 7 -26 6 -16 5
-16 -10 -4 -15 12 -17 12 -11 -3 4 -10 -1 -26 -12 -38 -11 -12 -13 -18 -6 -14
6 4 12 3 12 -3 0 -5 -5 -11 -12 -13 -8 -3 -8 -9 1 -24 9 -13 11 -14 7 -2 -5
16 21 34 32 23 3 -3 0 -5 -6 -5 -7 0 -12 -5 -12 -11 0 -5 4 -8 9 -4 5 3 12 1
16 -5 3 -5 15 -10 26 -10 10 0 19 -5 19 -11 0 -5 -4 -8 -9 -5 -12 8 -41 -4
-41 -16 0 -5 12 -26 28 -46 15 -20 21 -32 13 -28 -9 6 -12 5 -9 -5 3 -8 12
-12 19 -10 8 2 19 4 24 5 6 1 15 5 22 9 18 11 25 -9 8 -23 -8 -7 -15 -17 -15
-23 0 -6 3 -7 7 -4 3 4 12 2 19 -4 8 -7 14 -7 19 1 3 5 1 10 -6 10 -8 0 -9 3
0 13 6 8 8 17 4 20 -3 4 2 7 12 7 14 0 15 -3 5 -15 -10 -12 -9 -20 4 -40 14
-21 14 -25 2 -25 -8 0 -17 5 -19 10 -3 6 -4 5 -3 -2 2 -7 -1 -21 -6 -30 -10
-21 -2 -23 17 -5 8 6 21 18 30 25 12 10 13 17 5 27 -8 9 -6 14 9 18 16 4 19 0
16 -22 -1 -14 -3 -32 -4 -39 0 -7 -5 -11 -10 -8 -5 3 -14 -1 -21 -9 -7 -8 -11
-15 -9 -16 36 -7 41 -5 51 19 l12 27 4 -30 c2 -16 8 -33 13 -36 5 -3 12 -16
14 -30 3 -13 9 -25 14 -27 6 -2 8 -9 5 -16 -3 -7 2 -13 10 -13 8 0 12 6 9 14
-7 17 5 17 23 -1 11 -11 11 -16 1 -19 -6 -3 -1 -6 12 -6 16 -1 21 -6 18 -15
-3 -8 1 -20 8 -26 8 -7 12 -17 8 -24 -3 -6 -3 -8 2 -4 4 4 13 2 19 -5 6 -7 10
-10 9 -8 -2 2 2 10 8 18 9 10 8 13 0 13 -7 0 -9 5 -5 11 10 16 25 -12 18 -33
-3 -10 -1 -19 5 -19 6 -1 19 -2 29 -3 9 -1 23 -5 31 -10 9 -6 12 -5 7 2 -8 13
24 32 55 32 16 0 20 -5 16 -20 -3 -11 -1 -20 4 -20 5 0 9 4 9 9 0 5 13 14 29
19 25 9 29 8 24 -4 -3 -7 -10 -11 -16 -7 -6 4 -7 1 -2 -7 5 -8 1 -18 -11 -28
-18 -13 -18 -14 4 -7 16 4 22 2 22 -8 0 -10 13 -16 40 -19 22 -2 40 0 40 4 0
4 7 5 15 2 9 -4 15 0 15 7 1 9 4 8 11 -4 6 -9 14 -15 20 -12 5 3 16 2 25 -3
12 -7 13 -11 2 -19 -17 -15 -47 -20 -46 -9 0 9 -21 26 -33 26 -4 0 -9 -11 -11
-24 -4 -17 -1 -23 9 -19 7 3 13 1 13 -5 0 -18 -24 -20 -44 -3 -18 15 -19 15
-12 -3 5 -16 4 -17 -9 -6 -8 7 -22 10 -30 6 -8 -3 -15 -2 -15 2 0 17 -41 10
-50 -9 -8 -15 -8 -19 2 -17 7 2 12 -5 12 -14 -1 -10 4 -14 12 -11 8 3 17 -2
20 -12 4 -9 12 -14 19 -11 6 2 18 0 26 -4 11 -7 10 -10 -4 -16 -9 -3 -26 -4
-36 -1 -14 3 -18 1 -14 -9 3 -8 18 -14 33 -14 31 0 45 -13 34 -31 -5 -8 -8 -8
-14 0 -4 8 -14 9 -31 2 -13 -5 -21 -11 -16 -12 4 -1 12 -3 17 -4 6 -1 15 -3
21 -4 5 0 7 -6 4 -11 -4 -6 -12 -7 -18 -3 -7 3 -5 -2 4 -13 29 -35 34 -48 16
-41 -10 3 -17 2 -17 -3 0 -6 10 -10 23 -11 20 0 20 -1 3 -8 -11 -4 -15 -10
-10 -13 18 -9 86 -2 93 11 6 10 10 9 14 -3 4 -9 13 -16 22 -16 8 0 15 -7 15
-15 0 -11 -5 -12 -25 -5 -15 6 -27 6 -30 0 -3 -5 -13 -6 -22 -3 -13 5 -15 2
-10 -11 4 -10 7 -20 7 -23 0 -2 7 3 16 11 18 19 34 21 34 5 0 -6 7 -9 15 -6 8
4 18 1 22 -6 8 -12 9 -15 12 -39 2 -7 6 -4 11 7 7 16 9 17 9 3 1 -9 4 -23 7
-32 4 -11 1 -16 -11 -16 -9 0 -13 5 -10 10 3 6 1 10 -4 10 -6 0 -11 -7 -11
-15 0 -9 9 -15 24 -15 31 0 39 12 27 42 -6 17 -5 29 6 43 14 19 14 18 8 -7 -4
-16 -4 -35 -1 -45 6 -15 8 -14 20 2 13 17 13 17 11 -6 -4 -39 -5 -40 -13 -35
-4 2 -14 1 -22 -5 -13 -7 -12 -9 2 -9 11 0 15 -5 12 -15 -4 -8 -10 -13 -14
-10 -5 3 -12 0 -16 -6 -4 -7 -3 -9 4 -5 6 3 15 -2 21 -11 10 -17 10 -17 11 0
0 9 4 17 9 17 5 0 16 2 24 5 7 3 14 0 14 -7 1 -22 14 -82 19 -87 2 -2 4 4 4
14 0 10 3 15 7 12 3 -4 12 -2 20 4 10 9 13 5 13 -22 0 -31 -1 -32 -16 -13 -8
10 -13 13 -9 6 3 -6 2 -12 -4 -12 -5 0 -12 -8 -14 -17 -4 -17 -5 -17 -6 0 -1
18 -26 23 -36 7 -3 -6 1 -7 9 -4 9 3 16 1 16 -5 0 -6 -7 -11 -17 -11 -15 0
-15 -1 0 -18 10 -10 14 -23 10 -27 -5 -5 0 -3 10 5 18 14 18 14 0 21 -17 7
-16 9 5 13 4 1 13 5 20 9 8 5 12 3 12 -7 0 -19 11 -21 28 -4 7 7 12 8 12 4 0
-5 6 -4 13 2 8 7 18 7 27 2 13 -8 12 -10 -2 -10 -14 0 -16 -4 -8 -24 5 -13 7
-26 5 -28 -2 -2 6 -4 18 -5 21 -2 21 -1 3 12 -10 7 -15 19 -11 25 5 8 15 4 34
-12 30 -27 89 -37 103 -16 7 10 11 10 15 1 3 -10 471 -13 2189 -13 l2184 0 0
5120 0 5120 -5120 0 -5120 0 0 -2253z m5861 -133 c170 -29 325 -94 448 -188
87 -67 200 -193 255 -284 56 -95 113 -252 122 -339 6 -54 5 -60 -13 -65 -16
-4 -19 -1 -16 12 2 9 0 32 -5 51 -6 19 -11 26 -11 17 -1 -10 -5 -18 -11 -18
-5 0 -10 -8 -10 -19 0 -21 -23 -45 -33 -34 -4 3 -7 1 -7 -5 0 -7 -7 -9 -17 -5
-16 6 -16 5 1 -12 18 -18 17 -19 -25 -41 -46 -24 -74 -31 -65 -15 10 15 -22
176 -48 245 -36 96 -88 171 -185 266 -70 70 -104 94 -181 133 -176 88 -93 82
-1235 82 -1143 0 -1086 4 -1253 -80 -225 -113 -365 -306 -413 -566 -20 -109
-20 -2049 0 -2159 47 -261 196 -461 426 -570 166 -79 95 -75 1235 -75 1089 0
1051 -2 1180 51 241 98 407 297 460 550 l11 51 82 7 c45 3 95 9 111 13 l29 6
-6 -64 c-20 -189 -106 -375 -243 -528 -97 -108 -275 -221 -424 -270 -151 -50
-178 -51 -1212 -51 -938 0 -970 1 -1075 21 -325 62 -588 263 -722 551 -52 111
-78 216 -91 372 -14 176 -14 1945 1 2073 20 182 88 361 188 494 66 86 186 200
271 254 110 72 276 131 415 148 17 2 467 5 1001 6 846 1 983 -1 1065 -15z
m-1290 -423 c16 -16 29 -36 29 -44 0 -10 19 -18 58 -26 31 -6 81 -22 110 -36
30 -14 63 -25 74 -25 11 0 33 -13 49 -29 23 -23 29 -38 29 -71 0 -37 -3 -42
-35 -56 -67 -28 -145 -10 -145 34 0 9 -7 13 -17 10 -10 -3 -85 -18 -167 -34
-105 -20 -150 -33 -154 -44 -11 -31 -36 -50 -66 -50 -29 0 -36 -7 -83 -87 -45
-77 -50 -90 -37 -104 8 -8 14 -21 14 -27 0 -7 10 -12 23 -12 12 0 29 -5 37
-10 11 -7 6 -10 -22 -10 -25 0 -45 -8 -62 -24 -26 -23 -26 -23 -10 -76 8 -28
13 -54 10 -57 -2 -3 -12 20 -22 51 -14 46 -22 56 -41 58 -13 0 -27 1 -32 2 -5
1 -50 -47 -99 -105 l-90 -106 11 -36 c11 -33 19 -39 109 -77 54 -23 98 -46 98
-51 0 -4 -37 8 -82 27 -128 55 -124 54 -141 37 -14 -15 -10 -27 44 -134 37
-75 65 -119 75 -119 8 0 29 -7 46 -16 23 -12 32 -13 38 -4 5 9 9 9 14 1 4 -6
2 -11 -3 -11 -6 0 -11 -18 -11 -40 0 -31 5 -43 25 -56 35 -23 31 -37 -4 -16
-27 15 -31 15 -65 -3 -29 -16 -41 -17 -64 -9 -26 10 -33 8 -65 -21 -32 -29
-36 -36 -31 -67 4 -20 1 -45 -6 -57 -10 -20 -3 -33 77 -132 63 -78 92 -107
103 -102 43 19 87 15 118 -12 l31 -26 72 31 c40 17 75 27 78 24 3 -4 2 -9 -4
-11 -130 -51 -140 -58 -146 -96 -3 -21 -18 -50 -32 -65 l-26 -27 17 -67 c14
-58 19 -68 38 -68 12 0 24 -6 27 -14 10 -25 85 4 103 39 8 16 42 57 75 91 50
53 58 66 54 91 -10 50 6 58 64 32 28 -13 51 -29 51 -36 0 -15 -28 -43 -44 -43
-7 0 -17 -17 -23 -37 l-10 -38 -2 37 c0 20 -5 39 -10 42 -12 8 -130 -118 -142
-152 -7 -22 -20 -32 -49 -41 -32 -9 -40 -17 -40 -36 0 -39 -41 -78 -80 -77
-46 1 -64 -21 -65 -81 -1 -39 -6 -54 -24 -68 -25 -20 -81 -25 -97 -9 -6 6 -19
2 -37 -13 l-27 -22 30 -134 c17 -73 33 -137 35 -142 3 -4 18 -10 34 -14 29 -6
63 -32 78 -60 7 -13 14 -13 56 0 37 11 47 11 47 1 0 -7 -21 -19 -47 -27 -36
-10 -49 -19 -51 -36 -6 -40 -47 -73 -92 -73 -87 0 -131 102 -72 166 20 21 19
22 -15 165 l-35 145 -84 43 c-67 34 -87 40 -103 32 -34 -19 -78 -13 -111 15
-28 24 -31 32 -29 75 3 44 -2 54 -52 123 -48 67 -58 75 -86 76 -49 0 -95 45
-95 93 0 42 22 83 50 91 17 6 18 12 11 54 -4 26 -10 73 -14 105 -5 41 -11 57
-21 57 -9 0 -29 13 -45 29 -49 49 -35 122 30 156 26 13 28 19 34 102 4 48 15
121 25 161 16 62 17 75 5 79 -20 8 -43 57 -43 94 0 45 56 99 103 99 33 0 37 3
53 47 10 25 42 84 71 130 46 74 51 87 41 108 -23 51 31 114 87 102 15 -4 38
16 100 85 77 88 80 92 77 134 -3 39 0 48 31 79 37 37 79 46 118 24 16 -8 32
-3 86 32 37 23 103 58 148 79 73 33 83 41 88 69 16 80 110 109 168 52z m2778
-39 c37 -69 55 -311 31 -428 -15 -77 -85 -222 -143 -301 -41 -55 -43 -61 -22
-53 55 21 113 54 167 96 31 24 59 44 62 44 3 0 6 -29 6 -63 0 -75 -29 -194
-65 -272 -37 -78 -128 -188 -199 -242 l-61 -46 50 7 c28 3 76 19 108 35 70 34
79 26 52 -47 -62 -168 -203 -310 -370 -374 l-60 -23 74 -5 c44 -3 76 -10 78
-17 6 -18 -62 -88 -128 -132 -63 -42 -170 -87 -240 -100 l-44 -8 66 -32 c167
-80 383 -77 582 8 28 12 49 16 52 10 16 -25 -147 -184 -277 -272 -228 -153
-495 -226 -777 -214 -68 3 -128 10 -133 15 -6 6 -5 24 1 48 35 121 18 361 -34
499 -78 208 -223 372 -412 467 l-83 41 0 62 c0 137 80 323 184 429 99 99 204
146 411 181 204 35 374 89 545 175 234 116 444 306 526 473 30 61 38 67 53 39z
m-1376 -66 c38 -16 94 -76 103 -112 4 -14 4 -47 2 -73 -14 -141 -186 -202
-292 -103 -139 131 11 362 187 288z m-712 -270 c156 -34 308 -120 436 -247
l72 -72 -51 -56 c-69 -75 -195 -245 -203 -273 -28 -102 -72 -135 -110 -83 -11
16 -39 50 -62 75 -180 197 -562 157 -563 -58 0 -119 61 -162 380 -264 440
-142 603 -227 731 -380 59 -71 120 -191 146 -288 27 -99 25 -329 -5 -432 -46
-163 -96 -244 -227 -374 -135 -133 -333 -221 -554 -246 -244 -27 -527 44 -732
183 -120 81 -339 317 -339 365 0 8 19 36 43 62 70 76 214 264 270 352 18 27
30 35 52 35 27 0 34 -7 69 -75 47 -90 145 -192 229 -240 51 -29 57 -35 44 -47
-18 -19 -38 -13 -106 32 -30 20 -55 34 -56 33 -7 -9 -29 -54 -30 -61 0 -13
-29 -27 -35 -16 -5 8 -157 -22 -164 -33 -1 -2 -7 -15 -14 -30 -6 -16 -18 -28
-27 -28 -12 0 -15 -14 -14 -77 1 -133 9 -164 48 -187 34 -20 35 -20 104 9 17
7 18 3 16 -41 -3 -45 -1 -50 29 -67 l32 -19 0 191 c0 178 1 191 19 201 25 13
112 13 145 0 l26 -10 0 -188 c0 -133 -4 -192 -12 -200 -7 -7 -37 -12 -68 -12
-54 -1 -54 -1 -28 -15 87 -48 355 -82 505 -65 81 9 228 43 242 55 2 2 -6 17
-18 33 -31 44 -25 53 8 13 l28 -35 44 17 c109 42 113 80 13 122 -35 15 -64 31
-64 36 0 13 1 12 73 -20 l65 -29 22 23 21 22 -72 66 c-40 37 -71 69 -68 72 3
2 37 -25 76 -60 39 -36 76 -65 82 -65 7 0 22 -7 34 -15 21 -13 23 -13 36 18 8
18 43 59 78 93 35 33 63 65 63 71 0 6 -25 30 -55 53 -42 33 -59 40 -67 32 -19
-19 -66 -14 -88 8 -12 12 -20 33 -20 54 0 28 -9 41 -60 85 -63 55 -83 59 -100
19 -5 -13 -9 -17 -9 -10 -1 16 -21 16 -21 -1 0 -23 -34 -47 -58 -40 -27 7 -27
9 -4 34 21 22 42 83 42 123 0 39 -33 98 -76 136 -58 51 -160 94 -409 175 -332
107 -473 181 -594 310 -73 79 -112 144 -146 245 -51 154 -54 310 -9 468 87
301 314 493 649 548 94 16 269 11 366 -10z m-1188 -735 c5 0 7 -13 5 -28 -3
-24 -8 -28 -33 -28 -24 0 -29 4 -27 20 2 11 4 25 4 31 1 10 15 11 51 5z
m-3979 -656 c-4 -10 0 -15 12 -15 16 0 17 -2 4 -10 -12 -8 -11 -10 8 -10 22 0
32 -20 10 -20 -9 0 -8 -4 2 -10 13 -8 12 -10 -2 -10 -19 0 -25 -25 -8 -35 6
-4 7 1 4 12 -5 15 -4 15 4 3 6 -8 8 -18 6 -22 -3 -4 2 -8 10 -8 8 0 18 5 22
11 3 6 17 8 29 5 13 -3 27 -2 30 4 3 5 12 10 18 10 8 0 8 -3 -1 -9 -8 -4 -12
-17 -11 -27 2 -11 0 -19 -5 -19 -5 0 -14 -12 -20 -26 l-11 -26 -39 29 c-21 15
-33 28 -25 28 21 1 -21 30 -43 30 -10 0 -18 -4 -18 -10 0 -5 -8 -10 -17 -10
-15 1 -14 4 6 21 l25 20 -25 -6 c-19 -5 -26 -2 -26 9 0 12 3 13 14 4 11 -9 15
-7 19 10 4 14 12 19 25 17 22 -4 26 10 5 18 -7 3 -19 0 -25 -6 -14 -14 -41
-18 -41 -5 0 5 9 12 21 15 11 3 25 16 30 29 4 13 11 24 13 24 3 0 3 -7 0 -15z
m69 -108 c-3 -5 -9 -3 -14 4 -4 7 -5 17 -2 22 3 5 9 3 14 -4 4 -7 5 -17 2 -22z
m121 -53 c3 -9 -1 -14 -12 -14 -13 0 -14 -2 -4 -9 10 -6 10 -10 -1 -20 -12 -9
-16 -7 -21 9 -8 27 -6 36 7 32 6 -2 5 3 -2 12 -10 12 -9 14 8 9 11 -3 22 -11
25 -19z m197 -31 c12 -16 12 -17 -2 -6 -9 7 -20 9 -24 5 -5 -4 -5 -1 -1 6 9
16 11 15 27 -5z m-47 -34 c-3 -6 0 -15 7 -20 8 -5 10 -9 4 -9 -5 0 -17 5 -25
10 -13 9 -13 11 0 20 20 13 23 12 14 -1z m104 -54 c0 -14 -4 -28 -9 -31 -9 -5
-13 15 -11 48 1 12 -4 16 -16 12 -14 -5 -14 -4 -2 4 19 14 38 -2 38 -33z
m4637 -147 c58 -26 83 -142 50 -233 -8 -22 -15 -41 -15 -42 0 -2 50 -3 110 -3
96 0 112 -2 130 -20 28 -28 34 -64 18 -98 -10 -19 -12 -36 -6 -51 10 -27 1
-66 -18 -82 -8 -6 -14 -28 -14 -49 0 -21 -7 -43 -15 -50 -8 -7 -15 -23 -15
-35 0 -34 -36 -73 -78 -85 -72 -20 -315 -7 -399 21 l-33 11 0 178 c0 174 1
179 23 197 29 23 117 129 144 174 11 19 24 60 28 91 5 43 12 62 28 73 26 18
29 18 62 3z m-4415 -128 c0 -5 -2 -10 -4 -10 -3 0 -8 5 -11 10 -3 6 -1 10 4
10 6 0 11 -4 11 -10z m65 -2 c3 -3 -3 -8 -15 -11 -13 -3 -20 0 -20 8 0 13 23
15 35 3z m-88 -14 c-3 -3 -12 -4 -19 -1 -8 3 -5 6 6 6 11 1 17 -2 13 -5z m86
-27 c3 -8 -4 -14 -19 -15 -28 -2 -33 14 -6 21 9 3 18 5 18 6 1 0 4 -5 7 -12z
m-10 -44 c-3 -8 -13 -11 -24 -8 -12 4 -19 2 -19 -6 0 -7 -3 -9 -7 -5 -9 9 20
33 41 33 8 0 12 -6 9 -14z m37 -18 c0 -9 -6 -12 -15 -9 -8 4 -12 10 -9 15 8
14 24 10 24 -6z m-52 -27 c-2 -5 -7 -9 -11 -9 -4 1 -15 1 -24 1 -13 0 -15 2
-5 8 17 11 43 11 40 0z m4760 -35 c19 -50 23 -73 14 -73 -6 0 -17 21 -26 47
-19 55 -19 53 -7 53 5 0 13 -12 19 -27z m-4718 -24 c0 -5 -7 -6 -15 -3 -9 4
-15 0 -15 -7 0 -11 -3 -11 -10 1 -15 23 -12 28 15 22 14 -2 25 -8 25 -13z m35
-7 c-3 -3 -11 0 -18 7 -9 10 -8 11 6 5 10 -3 15 -9 12 -12z m19 -57 c3 -8 1
-15 -4 -15 -6 0 -10 4 -10 9 0 5 -8 12 -17 14 -14 4 -13 5 3 6 12 0 24 -6 28
-14z m49 -92 c-4 -11 -8 -13 -11 -5 -2 7 -8 10 -13 6 -5 -3 -9 0 -9 5 0 6 9
11 20 11 14 0 18 -5 13 -17z m212 -53 c3 -6 -1 -7 -9 -4 -18 7 -21 14 -7 14 6
0 13 -4 16 -10z m-195 -10 c0 -5 -4 -10 -10 -10 -5 0 -10 5 -10 10 0 6 5 10
10 10 6 0 10 -4 10 -10z m220 -50 c0 -5 -2 -10 -4 -10 -3 0 -8 5 -11 10 -3 6
-1 10 4 10 6 0 11 -4 11 -10z m76 -22 c4 -7 4 -10 -1 -6 -4 4 -15 2 -24 -5
-14 -11 -14 -10 -2 6 16 20 18 21 27 5z m-141 -8 c3 -5 1 -10 -4 -10 -6 0 -11
5 -11 10 0 6 2 10 4 10 3 0 8 -4 11 -10z m60 0 c13 -6 15 -9 5 -9 -8 0 -22 4
-30 9 -18 12 -2 12 25 0z m98 -27 c-7 -2 -19 -2 -25 0 -7 3 -2 5 12 5 14 0 19
-2 13 -5z m-7 -98 c3 -17 -12 -20 -21 -5 -3 6 -1 10 6 10 8 0 8 5 -2 18 -11
14 -11 15 1 5 8 -7 15 -20 16 -28z m136 -8 c20 -20 15 -45 -6 -28 -7 6 -16 7
-21 3 -4 -4 -4 3 -1 16 5 13 3 22 -3 22 -6 0 -7 8 -4 17 5 14 8 14 11 2 3 -7
13 -22 24 -32z m-43 -13 c2 -2 -7 -4 -22 -4 -14 0 -29 5 -32 10 -6 10 42 4 54
-6z m106 6 c3 -5 1 -10 -4 -10 -6 0 -11 5 -11 10 0 6 2 10 4 10 3 0 8 -4 11
-10z m-232 -48 c7 -9 6 -11 -7 -6 -9 3 -16 16 -15 28 0 14 2 16 6 6 3 -8 10
-21 16 -28z m447 -46 c0 -2 -8 -10 -17 -17 -16 -13 -17 -12 -4 4 13 16 21 21
21 13z m74 -222 c3 -8 2 -12 -4 -9 -6 3 -10 10 -10 16 0 14 7 11 14 -7z m136
-104 c0 -5 -5 -10 -11 -10 -5 0 -7 5 -4 10 3 6 8 10 11 10 2 0 4 -4 4 -10z
m111 -147 c13 -15 12 -15 -8 -4 -24 12 -29 21 -14 21 5 0 15 -7 22 -17z m33
-46 c-2 -7 -15 -13 -27 -14 -21 -2 -21 -1 3 12 31 18 30 18 24 2z m-24 -68 c0
-11 -4 -17 -10 -14 -5 3 -10 13 -10 21 0 8 5 14 10 14 6 0 10 -9 10 -21z m112
-47 c-7 -2 -12 -10 -12 -17 0 -8 -9 -13 -19 -12 -19 1 -19 2 2 22 12 12 26 19
32 16 5 -2 4 -6 -3 -9z m48 2 c0 -8 -19 -13 -24 -6 -3 5 1 9 9 9 8 0 15 -2 15
-3z m110 -45 c0 -6 7 -9 15 -5 8 3 15 1 15 -5 0 -6 -8 -9 -17 -7 -10 1 -25 -2
-33 -7 -12 -7 -13 -6 -3 7 7 8 10 18 6 21 -3 4 -1 7 5 7 7 0 12 -5 12 -11z
m135 -69 c3 -5 2 -10 -4 -10 -5 0 -13 5 -16 10 -3 6 -2 10 4 10 5 0 13 -4 16
-10z m90 -90 c-3 -5 -12 -10 -18 -10 -7 0 -6 4 3 10 19 12 23 12 15 0z m-35
-100 c0 -19 -11 -26 -23 -14 -8 8 3 34 14 34 5 0 9 -9 9 -20z m37 -26 c-3 -3
-12 -4 -19 -1 -8 3 -5 6 6 6 11 1 17 -2 13 -5z m-12 -54 c3 -6 -1 -7 -9 -4
-18 7 -21 14 -7 14 6 0 13 -4 16 -10z m15 -30 c0 -5 -5 -10 -11 -10 -5 0 -7 5
-4 10 3 6 8 10 11 10 2 0 4 -4 4 -10z m84 -9 c-10 -10 -21 -16 -24 -14 -3 3 4
11 14 19 28 20 33 17 10 -5z m193 -18 c-20 -2 -52 -2 -70 0 -17 2 0 4 38 4 39
0 53 -2 32 -4z m-182 -23 c3 -5 1 -10 -4 -10 -6 0 -11 5 -11 10 0 6 2 10 4 10
3 0 8 -4 11 -10z m-25 -9 c0 -5 -12 -17 -27 -26 l-28 -18 24 27 c26 28 31 31
31 17z m439 -29 c7 -7 11 -16 8 -19 -8 -7 -77 36 -77 48 0 10 49 -10 69 -29z
m996 10 c-5 -4 -11 -14 -13 -22 -2 -8 -7 -16 -11 -18 -3 -1 -5 -21 -4 -45 l2
-42 -9 35 c-10 38 10 100 33 100 8 0 8 -3 2 -8z m-97 -58 c-3 -27 -4 -26 -9 8
-3 22 -1 34 4 29 5 -5 7 -21 5 -37z m-509 -14 c11 -24 11 -24 -3 -6 -9 11 -16
24 -16 30 0 12 5 7 19 -24z m228 -39 c-12 -22 -24 -37 -26 -35 -7 6 30 74 40
74 4 0 -2 -18 -14 -39z m-1186 -26 c-9 -25 -17 -41 -19 -35 -5 14 18 80 28 80
4 0 0 -20 -9 -45z m339 -36 c0 -5 -4 -8 -9 -5 -12 8 -42 -4 -36 -14 5 -7 -23
-24 -36 -22 -8 1 -4 -36 4 -44 16 -16 5 -24 -15 -13 -38 20 -50 49 -21 49 13
0 14 3 6 11 -13 13 -1 31 27 42 26 10 80 7 80 -4z m46 -17 c1 -7 0 -8 -3 -2
-2 5 -9 8 -13 5 -5 -3 -12 0 -15 6 -5 7 -1 10 10 7 10 -1 20 -9 21 -16z m408
-68 c26 -41 39 -71 31 -67 -8 5 -24 24 -34 43 -10 19 -24 36 -32 38 -11 3 -11
1 1 -7 8 -5 11 -13 7 -17 -4 -4 -13 -2 -19 4 -15 15 -28 15 -28 1 0 -5 4 -7
10 -4 6 3 7 -1 4 -9 -3 -9 -14 -16 -23 -15 -9 0 -11 3 -4 5 7 3 10 11 7 19 -3
7 0 16 6 20 6 4 8 16 4 28 -6 22 -6 22 11 2 16 -20 16 -19 10 8 -3 15 -3 27
-1 27 3 0 25 -34 50 -76z m-459 56 c3 -5 1 -10 -4 -10 -6 0 -11 5 -11 10 0 6
2 10 4 10 3 0 8 -4 11 -10z m1052 -35 c0 -8 -5 -15 -11 -16 -6 0 -2 -4 9 -9
11 -5 14 -9 8 -9 -7 -1 -13 -11 -13 -23 0 -18 -2 -20 -9 -9 -8 12 -13 8 -28
-17 -16 -29 -33 -42 -33 -26 0 6 71 124 75 124 1 0 2 -7 2 -15z m-634 -60 c-3
-9 -8 -14 -10 -11 -3 3 -2 9 2 15 9 16 15 13 8 -4z m41 -35 c-7 -6 -24 22 -23
40 0 9 6 5 14 -10 7 -14 11 -27 9 -30z m-89 22 c-3 -3 -11 0 -18 7 -9 10 -8
11 6 5 10 -3 15 -9 12 -12z m-27 -42 c3 -7 0 -10 -7 -6 -6 4 -11 2 -11 -3 0
-6 -5 -11 -11 -11 -5 0 -7 5 -4 10 3 6 1 10 -5 10 -6 0 -9 4 -6 9 8 13 39 7
44 -9z m47 10 c3 -6 -4 -10 -17 -10 -18 0 -20 2 -8 10 19 12 18 12 25 0z m35
0 c0 -5 -5 -10 -11 -10 -5 0 -7 5 -4 10 3 6 8 10 11 10 2 0 4 -4 4 -10z m777
-152 c-2 -29 -3 -6 -3 52 0 58 1 81 3 53 2 -29 2 -77 0 -105z m-927 107 c8 -9
8 -15 2 -15 -6 0 -12 6 -15 13 -2 6 -7 10 -10 7 -3 -3 8 -21 25 -40 26 -29 30
-31 25 -12 -3 12 -2 22 3 22 13 0 56 -39 44 -40 -7 0 -9 -11 -7 -27 4 -22 2
-25 -6 -13 -8 12 -11 6 -11 -25 l-1 -40 -20 52 c-12 30 -36 66 -59 87 -36 32
-37 35 -17 39 12 2 25 5 28 6 4 0 12 -6 19 -14z m110 -15 c0 -5 -10 -10 -22
-9 -22 0 -22 1 -3 9 11 5 21 9 23 9 1 1 2 -3 2 -9z m-330 -159 c48 -35 31 -93
-32 -106 -63 -14 -118 3 -171 56 -28 26 -49 51 -46 53 3 3 29 -17 58 -45 29
-28 59 -48 66 -45 7 2 16 2 20 -2 4 -4 17 -7 30 -7 17 -1 23 5 23 22 0 13 -6
23 -12 23 -6 1 0 9 13 20 12 11 28 17 34 13 6 -3 7 -1 3 5 -4 7 -12 12 -17 12
-6 0 -18 7 -27 16 -15 15 -14 16 8 9 14 -3 36 -15 50 -24z m588 -263 c6 -6 12
-19 11 -28 0 -10 -2 -11 -6 -2 -2 6 -9 12 -15 12 -6 0 -7 -7 -4 -16 5 -14 4
-15 -9 -4 -14 11 -14 14 1 24 14 11 14 13 0 25 -13 11 -16 11 -16 -1 0 -8 -7
-15 -15 -15 -8 0 -12 4 -9 9 3 4 0 8 -5 8 -6 0 -11 5 -11 11 0 5 5 7 10 4 6
-3 10 1 10 9 0 9 4 15 9 14 5 -2 9 0 10 5 3 20 0 28 -8 23 -5 -3 -15 1 -22 10
-10 12 -10 15 2 12 8 -2 13 3 12 10 -2 6 3 11 10 10 7 -2 13 10 15 27 3 28 2
29 -11 11 -14 -18 -37 -15 -37 5 0 6 5 7 10 4 19 -12 15 75 -3 88 -7 4 0 5 16
3 22 -4 27 -1 29 17 1 12 4 -42 7 -120 4 -94 10 -146 19 -155z m-768 247 c0
-5 -5 -3 -10 5 -5 8 -10 20 -10 25 0 6 5 3 10 -5 5 -8 10 -19 10 -25z m987
-47 c-2 -13 -4 -3 -4 22 0 25 2 35 4 23 2 -13 2 -33 0 -45z m-292 10 c-3 -12
-10 -26 -16 -32 -9 -8 -10 -7 -5 4 4 8 -2 4 -14 -10 -12 -14 -19 -19 -15 -12
3 6 1 12 -4 12 -6 0 -11 5 -11 10 0 6 5 10 10 10 6 0 19 9 30 20 25 25 30 25
25 -2z m-8 -66 c9 -15 8 -18 -6 -17 -16 1 -21 7 -21 25 0 16 14 12 27 -8z
m640 -84 c-2 -13 -4 -5 -4 17 -1 22 1 32 4 23 2 -10 2 -28 0 -40z m-653 17
c-4 -8 -8 -15 -10 -15 -2 0 -4 7 -4 15 0 8 4 15 10 15 5 0 7 -7 4 -15z m893
-52 c-3 -10 -5 -2 -5 17 0 19 2 27 5 18 2 -10 2 -26 0 -35z m-1051 -32 c0 -10
-6 -18 -13 -18 -7 0 -13 4 -13 9 0 4 -8 9 -17 9 -17 1 -17 2 0 6 9 2 15 8 12
13 -3 4 3 6 13 3 10 -2 18 -12 18 -22z m100 -10 c-4 -5 -1 -12 4 -14 6 -3 5
-4 -2 -3 -15 3 -23 26 -8 26 6 0 9 -4 6 -9z m-326 -20 c0 -5 -9 -12 -20 -15
-11 -3 -29 -9 -40 -12 -34 -9 -22 12 13 24 43 13 47 14 47 3z m574 -15 c41 0
51 -3 34 -9 -21 -7 -81 -2 -99 9 -5 3 -9 11 -9 17 0 8 3 7 9 -2 6 -9 29 -14
65 -15z m-530 0 c-3 -8 -19 -16 -36 -18 l-32 -5 23 18 c27 22 53 25 45 5z
m406 -11 c5 3 11 1 14 -4 4 -5 -2 -8 -11 -6 -10 2 -22 4 -26 4 -5 1 -5 6 -1
13 6 9 9 9 12 0 2 -7 8 -10 12 -7z m687 9 c-3 -3 -12 -4 -19 -1 -8 3 -5 6 6 6
11 1 17 -2 13 -5z m-383 -162 c2 -4 -5 -9 -17 -9 -17 -2 -19 0 -7 7 18 12 18
12 24 2z m136 -52 c0 -13 -5 -18 -15 -14 -8 4 -15 12 -15 20 0 8 7 14 15 14 8
0 15 -9 15 -20z m87 -105 c-8 -9 -14 -10 -19 -2 -9 16 0 27 17 21 11 -5 12 -9
2 -19z m115 -82 c-6 -2 -10 -8 -7 -12 2 -5 -8 -6 -23 -3 l-27 6 25 7 c29 8 51
10 32 2z m84 -20 c-10 -11 -37 -12 -30 -2 3 5 12 9 21 9 9 0 13 -3 9 -7z
m-166 -13 c0 -5 -4 -10 -10 -10 -5 0 -10 5 -10 10 0 6 5 10 10 10 6 0 10 -4
10 -10z m-54 -38 c-8 -9 -19 -13 -22 -9 -10 9 16 38 28 31 6 -4 4 -13 -6 -22z
m350 -1 c-4 -5 0 -12 6 -14 8 -3 6 -6 -4 -6 -18 -1 -24 10 -11 22 9 10 15 8 9
-2z m-129 -43 c-3 -8 -6 -5 -6 6 -1 11 2 17 5 13 3 -3 4 -12 1 -19z m128 2
c-3 -5 -12 -10 -18 -10 -7 0 -6 4 3 10 19 12 23 12 15 0z m32 -62 c-3 -7 -5
-2 -5 12 0 14 2 19 5 13 2 -7 2 -19 0 -25z m63 -69 c0 -4 -7 -12 -15 -19 -8
-7 -15 -10 -15 -7 0 3 -2 12 -5 19 -4 9 2 14 15 14 11 0 20 -3 20 -7z m160
-79 c-20 -13 -43 -13 -35 0 3 6 16 10 28 10 18 0 19 -2 7 -10z m144 -146 c18
-7 12 -24 -8 -24 -7 0 -13 7 -13 15 0 17 0 17 21 9z m101 -14 c-3 -5 -12 -10
-18 -10 -7 0 -6 4 3 10 19 12 23 12 15 0z m-63 -52 c-15 -8 -21 -17 -17 -29 3
-9 0 -21 -6 -25 -8 -4 -9 -3 -5 4 5 8 0 12 -13 12 -16 0 -20 5 -17 23 3 12 5
22 5 23 1 0 18 1 39 2 33 0 35 -1 14 -10z m18 -74 c0 -8 -5 -12 -10 -9 -6 4
-8 11 -5 16 9 14 15 11 15 -7z m-10 -58 c17 -35 16 -56 -2 -56 -6 0 -9 3 -5 6
3 3 -3 14 -13 24 -11 11 -16 27 -13 39 7 29 15 26 33 -13z m90 -26 c0 -5 -4
-10 -10 -10 -5 0 -10 5 -10 10 0 6 5 10 10 10 6 0 10 -4 10 -10z m140 -99 c0
-6 -4 -12 -8 -15 -5 -3 -9 1 -9 9 0 8 4 15 9 15 4 0 8 -4 8 -9z m-66 -40 c3
-5 -1 -14 -8 -20 -12 -10 -14 -9 -11 6 2 10 4 19 4 21 2 5 10 2 15 -7z m76
-67 c0 -8 -19 -13 -24 -6 -3 5 1 9 9 9 8 0 15 -2 15 -3z m1 -37 c-10 -9 -11
-8 -5 6 3 10 9 15 12 12 3 -3 0 -11 -7 -18z m139 -58 c0 -17 -9 -9 -24 24
l-16 32 20 -24 c11 -13 20 -27 20 -32z m-86 23 c2 -4 -4 -8 -15 -8 -10 0 -19
4 -19 8 0 4 6 8 14 8 8 0 17 -4 20 -8z m63 -59 c-4 -3 -2 -12 4 -19 7 -9 6
-12 -7 -10 -22 3 -28 36 -6 36 8 0 12 -3 9 -7z m-37 -43 c-7 -4 -19 -3 -26 3
-10 10 -10 14 4 25 13 10 18 9 25 -4 6 -11 5 -19 -3 -24z m150 21 c0 -14 -29
-21 -36 -9 -4 6 -3 8 4 4 6 -3 13 -2 17 4 8 12 15 13 15 1z m60 5 c0 -3 -4 -8
-10 -11 -5 -3 -10 -1 -10 4 0 6 5 11 10 11 6 0 10 -2 10 -4z m-156 -62 c-10
-7 -24 -18 -30 -23 -15 -13 -23 -4 -17 18 3 13 11 17 24 14 11 -3 19 0 19 6 0
7 5 9 12 5 7 -5 5 -11 -8 -20z m100 -21 l20 -27 -27 20 c-14 10 -27 22 -27 27
0 15 16 6 34 -20z m-17 -19 c9 -9 9 -14 -2 -18 -8 -3 -15 -1 -15 5 0 6 -4 7
-10 4 -5 -3 -10 0 -10 8 0 17 22 18 37 1z m4551 -84 c39 -84 109 -150 180
-169 38 -10 34 -31 -11 -46 -73 -25 -147 -99 -172 -172 -16 -47 -32 -53 -45
-16 -33 90 -99 161 -173 186 -50 16 -58 34 -20 47 104 38 158 94 196 203 10
28 21 20 45 -33z m-4397 13 c13 -17 13 -17 -6 -3 -11 8 -22 16 -24 17 -2 2 0
3 6 3 6 0 17 -8 24 -17z m-51 -121 c0 -10 3 -13 8 -6 11 16 45 26 39 12 -2 -7
0 -21 5 -30 8 -16 6 -17 -19 -6 -38 16 -64 39 -57 49 8 13 24 0 24 -19z m234
10 c3 -5 -1 -9 -9 -9 -8 0 -15 4 -15 9 0 4 4 8 9 8 6 0 12 -4 15 -8z m-102
-27 c8 -10 -9 -25 -29 -25 -7 0 -12 6 -10 13 1 6 -6 11 -15 11 -10 -1 -15 2
-12 7 7 12 57 7 66 -6z m68 -15 c0 -5 -5 -10 -11 -10 -5 0 -7 5 -4 10 3 6 8
10 11 10 2 0 4 -4 4 -10z m-100 -125 c-10 -12 -10 -18 1 -32 9 -11 10 -14 2
-9 -9 5 -11 2 -7 -8 3 -9 11 -13 17 -9 6 3 7 1 3 -5 -12 -19 -24 -14 -40 19
-16 33 -7 58 23 59 11 0 11 -3 1 -15z m100 -6 c0 -6 -4 -7 -10 -4 -5 3 -10 11
-10 16 0 6 5 7 10 4 6 -3 10 -11 10 -16z m0 -57 c0 -5 -7 -9 -15 -9 -8 0 -12
4 -9 9 3 4 9 8 15 8 5 0 9 -4 9 -8z m180 -26 c0 -3 -4 -8 -10 -11 -5 -3 -10
-1 -10 4 0 6 5 11 10 11 6 0 10 -2 10 -4z m-157 -36 c-6 -21 -25 -28 -20 -7 2
10 16 26 24 27 0 0 -1 -9 -4 -20z m143 -21 c-6 -43 -15 -49 -11 -7 4 39 4 38
11 38 3 0 3 -14 0 -31z m104 -204 c-7 -8 -9 -19 -5 -26 6 -8 10 -7 16 2 6 10
9 10 9 2 0 -22 -17 -23 -39 -2 -21 20 -21 22 -4 34 22 16 38 8 23 -10z m58 5
c-7 -11 -15 -15 -17 -9 -2 6 3 15 10 20 20 12 21 11 7 -11z m-105 -40 c-7 -28
-13 -25 -13 6 0 14 4 23 9 20 5 -3 7 -15 4 -26z"/>
<path d="M6180 7706 c0 -3 9 -10 20 -16 11 -6 20 -8 20 -6 0 3 -9 10 -20 16
-11 6 -20 8 -20 6z"/>
<path d="M6290 7631 c0 -5 7 -12 16 -15 14 -5 15 -4 4 9 -14 17 -20 19 -20 6z"/>
<path d="M6513 7377 c12 -25 28 -48 35 -51 8 -4 5 9 -9 32 -35 58 -50 69 -26
19z"/>
<path d="M4596 7332 c-3 -5 30 -24 74 -44 75 -34 78 -35 94 -17 15 18 14 20
-18 33 -26 11 -124 36 -141 36 -2 0 -6 -4 -9 -8z"/>
<path d="M4320 7274 c-41 -19 -103 -51 -137 -71 -58 -34 -61 -37 -50 -61 10
-22 15 -24 62 -18 27 3 58 6 68 6 10 0 17 8 17 19 0 21 28 35 70 36 31 0 85
75 75 105 -8 27 -17 25 -105 -16z"/>
<path d="M4550 7279 c-19 -17 -34 -20 -65 -16 -40 6 -42 5 -68 -39 -30 -49
-34 -72 -14 -79 6 -3 84 10 172 28 142 28 160 34 160 52 0 15 -16 26 -65 47
-79 32 -88 33 -120 7z"/>
<path d="M4136 7086 c-3 -14 -17 -38 -30 -53 l-25 -30 23 -50 c21 -45 27 -50
57 -51 32 -1 36 3 82 84 64 111 60 124 -33 124 -63 0 -68 -2 -74 -24z"/>
<path d="M3884 6945 c-41 -42 -74 -83 -74 -89 0 -7 6 -19 13 -28 11 -15 25
-15 135 -5 84 7 122 15 122 23 0 7 7 20 16 28 14 15 14 21 -7 70 -20 49 -25
55 -58 58 -20 3 -44 8 -55 13 -15 6 -33 -7 -92 -70z"/>
<path d="M3925 6806 c-87 -10 -100 -14 -103 -31 -2 -11 -11 -28 -20 -38 -14
-16 -13 -23 15 -90 17 -39 36 -71 42 -69 7 1 20 -2 30 -7 15 -9 33 7 113 103
82 97 94 115 83 129 -14 19 -18 19 -160 3z"/>
<path d="M3676 6688 c-50 -86 -106 -194 -106 -203 1 -5 9 -20 20 -33 l19 -23
90 32 c71 26 91 38 95 55 3 13 13 30 22 38 14 15 13 22 -13 86 -21 53 -33 70
-48 70 -11 0 -29 3 -40 5 -15 4 -25 -3 -39 -27z"/>
<path d="M3705 6444 c-86 -30 -90 -33 -96 -65 -3 -19 -11 -44 -19 -55 -12 -20
-10 -26 20 -63 20 -27 38 -40 47 -37 8 3 25 6 37 6 19 0 31 17 73 108 66 142
62 149 -62 106z"/>
<path d="M3781 6328 c-35 -76 -48 -115 -41 -123 14 -17 16 -71 3 -87 -9 -11
-5 -24 19 -61 28 -43 34 -48 67 -47 20 1 43 0 52 -2 8 -2 31 11 51 28 33 29
36 35 31 72 -4 33 -1 44 18 64 l24 23 -59 115 c-32 63 -59 115 -60 116 0 1
-13 4 -27 7 -25 6 -28 1 -78 -105z"/>
<path d="M3518 6283 c-14 -2 -29 -12 -33 -21 -29 -77 -48 -300 -25 -303 6 -1
14 -2 18 -3 5 -1 40 35 79 79 59 67 69 84 61 99 -7 13 -7 26 1 43 6 13 11 26
11 28 0 9 -72 85 -79 84 -3 -1 -18 -4 -33 -6z"/>
<path d="M3569 6021 c-38 -42 -69 -78 -69 -81 1 -3 7 -14 15 -24 14 -18 17
-19 130 -1 63 10 115 23 115 28 0 6 7 18 16 28 15 17 14 22 -18 66 -30 41 -40
49 -77 54 -42 6 -43 5 -112 -70z"/>
<path d="M3640 5895 c-47 -7 -91 -14 -97 -14 -7 -1 -13 -9 -13 -19 0 -10 -6
-27 -14 -37 -12 -17 -10 -24 22 -63 30 -37 39 -42 61 -36 14 4 35 6 46 6 26
-1 39 11 91 84 46 65 50 95 10 93 -11 -1 -59 -7 -106 -14z"/>
<path d="M3741 5792 c-49 -69 -51 -76 -41 -106 24 -74 -42 -132 -110 -96 -15
8 -22 5 -38 -18 -17 -23 -18 -29 -6 -40 8 -7 17 -30 20 -52 6 -37 9 -40 60
-55 98 -28 111 -29 140 -6 31 24 53 26 79 7 17 -12 28 -7 109 45 90 57 90 58
88 96 -2 21 3 47 11 58 14 18 9 27 -63 115 -96 119 -100 122 -153 124 -44 2
-44 1 -96 -72z"/>
<path d="M3466 5775 c-18 -13 -18 -20 -7 -107 7 -51 17 -96 24 -100 39 -25 70
15 71 90 1 52 -2 60 -34 94 -32 34 -37 36 -54 23z"/>
<path d="M3964 5457 c-75 -48 -82 -55 -88 -92 -6 -39 -4 -41 67 -110 l72 -70
57 1 c67 1 104 24 88 55 -16 29 -11 68 11 90 17 17 19 28 13 62 -11 67 -21 87
-46 87 -13 1 -34 7 -48 15 -14 8 -29 14 -35 14 -5 1 -47 -23 -91 -52z"/>
<path d="M3546 5401 c-16 -18 -15 -22 32 -82 35 -47 53 -63 68 -60 10 2 41 4
67 5 40 1 52 -4 69 -23 10 -14 22 -37 25 -52 5 -26 10 -28 97 -41 80 -12 92
-12 100 1 7 11 -11 33 -74 92 -71 67 -86 76 -105 69 -35 -13 -60 -2 -77 34
-14 28 -25 35 -91 54 -91 27 -90 27 -111 3z"/>
<path d="M3800 5125 c0 -16 111 -75 140 -75 25 0 61 30 58 48 -2 12 -23 20
-78 28 -103 17 -120 17 -120 -1z"/>
<path d="M7280 7263 c-85 -142 -290 -311 -506 -417 -137 -68 -322 -134 -436
-156 -38 -8 -68 -17 -68 -21 0 -7 73 -3 98 6 7 3 20 -4 29 -15 11 -12 21 -16
28 -10 8 6 11 1 9 -18 -1 -16 5 -36 12 -47 8 -10 14 -14 14 -9 0 6 -4 14 -10
20 -6 6 -5 15 1 24 8 11 12 12 16 3 2 -7 14 -13 25 -13 17 0 19 -5 14 -27 -5
-26 -5 -27 6 -5 6 12 15 22 20 22 4 0 8 5 8 11 0 6 -7 9 -14 6 -19 -8 -32 31
-16 47 6 6 10 7 8 1 -1 -5 8 -22 22 -38 26 -29 33 -54 20 -62 -5 -3 -7 -12 -4
-19 3 -8 0 -17 -7 -22 -7 -4 -10 -3 -5 4 3 6 2 13 -4 17 -11 7 -13 -15 -4 -38
4 -11 16 -14 45 -11 39 5 40 5 33 -23 -4 -15 -11 -34 -17 -40 -5 -8 -6 -13 0
-13 5 0 15 6 22 13 10 10 11 9 6 -5 -4 -10 -6 -18 -4 -18 2 0 19 -4 37 -9 20
-6 30 -6 27 0 -4 5 -1 9 4 9 6 0 11 -4 11 -10 0 -5 3 -9 8 -9 20 3 28 -3 30
-28 1 -22 0 -24 -8 -13 -5 8 -10 11 -10 5 0 -5 -7 -1 -15 9 -8 11 -15 18 -16
15 -8 -43 -8 -59 0 -59 5 0 11 5 13 12 2 6 10 8 16 4 8 -5 10 -16 6 -28 -5
-16 -3 -20 9 -15 9 3 17 -1 20 -14 3 -10 17 -23 31 -29 14 -5 26 -12 26 -15 0
-4 -5 -3 -11 1 -7 4 -9 -2 -7 -17 2 -18 9 -24 28 -24 19 0 26 -6 28 -24 2 -15
0 -21 -7 -17 -16 11 -13 0 5 -14 12 -11 15 -11 12 0 -5 22 17 21 27 -2 6 -12
16 -24 24 -26 8 -3 11 0 8 6 -4 5 2 12 13 15 11 3 17 1 14 -5 -3 -5 -3 -20 0
-33 4 -17 11 -23 23 -18 13 5 15 2 11 -15 -7 -24 17 -32 25 -9 2 7 11 -1 21
-18 9 -16 15 -22 12 -12 -4 11 -2 16 5 11 6 -3 9 -15 6 -25 -3 -11 -1 -17 3
-14 5 3 10 0 12 -6 2 -6 15 -12 30 -12 16 -1 24 -7 21 -14 -3 -7 6 -17 18 -22
26 -9 28 -19 8 -32 -8 -4 -11 -11 -8 -14 12 -11 106 103 143 174 37 71 37 71
11 59 -17 -7 -22 -15 -16 -21 7 -7 4 -21 -7 -41 -26 -48 -60 -77 -46 -41 4 8
-1 17 -10 21 -14 5 -14 8 1 31 l17 25 -60 -6 c-61 -7 -120 3 -118 20 1 5 24
22 53 39 45 26 49 30 31 37 -11 4 -27 5 -35 2 -8 -4 -15 -1 -15 5 0 6 8 11 18
11 9 0 23 9 30 20 7 11 17 20 23 20 8 0 7 -5 -1 -15 -10 -12 -10 -15 0 -15 6
0 14 9 17 20 6 21 43 28 43 8 0 -17 45 29 85 86 31 46 34 54 25 90 -5 22 -6
44 -3 50 4 5 -1 7 -10 3 -11 -4 -14 -2 -10 9 3 8 12 13 19 10 8 -3 14 -1 14 4
0 5 7 7 15 4 9 -4 15 0 16 7 0 8 4 5 8 -6 7 -16 11 -10 25 35 9 30 19 80 23
110 l6 55 -29 -26 c-16 -15 -51 -41 -78 -58 -34 -21 -44 -31 -30 -31 18 -1 18
-1 2 -14 -10 -7 -14 -17 -10 -21 4 -5 -1 -5 -11 -2 -10 4 -21 7 -24 7 -3 0 0
6 6 13 9 11 1 11 -45 0 -84 -22 -84 -7 -6 96 114 150 161 281 162 447 0 77
-15 186 -28 210 -4 7 -26 -20 -52 -63z m-594 -502 c-3 -5 -16 -7 -28 -3 -16 4
-19 2 -13 -8 6 -9 4 -11 -5 -5 -8 5 -17 2 -24 -7 -15 -20 -56 -30 -49 -12 2 7
12 10 20 7 12 -5 14 -3 8 7 -5 8 -4 11 2 7 6 -4 16 0 23 8 13 16 75 21 66 6z
m-192 -67 c5 -13 1 -15 -19 -12 -27 6 -32 -1 -13 -20 7 -7 -2 -5 -21 4 -33 17
-34 18 -12 26 13 4 27 6 32 2 5 -3 9 0 9 5 0 17 17 13 24 -5z m46 6 c-13 -9
-8 -14 12 -12 3 1 9 -5 12 -14 6 -16 -11 -9 -49 20 -19 15 -19 15 10 16 23 0
26 -3 15 -10z m80 -21 c0 -5 -4 -9 -8 -9 -5 0 -9 7 -9 15 0 8 4 12 9 9 4 -3 8
-9 8 -15z m535 -29 c-4 -12 -9 -19 -12 -17 -3 3 -2 15 2 27 4 12 9 19 12 17 3
-3 2 -15 -2 -27z m-575 -10 c0 -5 -2 -10 -4 -10 -3 0 -8 5 -11 10 -3 6 -1 10
4 10 6 0 11 -4 11 -10z m85 -28 c-3 -3 -11 0 -18 7 -9 10 -8 11 6 5 10 -3 15
-9 12 -12z m-30 -41 c3 -6 -3 -8 -14 -6 -14 2 -18 -1 -15 -10 3 -7 14 -12 25
-10 11 2 17 0 14 -5 -3 -5 4 -18 17 -29 12 -12 18 -24 14 -28 -4 -4 -17 5 -29
19 -16 19 -27 24 -37 18 -9 -5 -19 -5 -27 2 -15 12 -18 42 -3 33 6 -3 7 1 4 9
-5 12 0 16 19 16 14 0 28 -4 32 -9z m100 -99 c-3 -3 -11 0 -18 7 -9 10 -8 11
6 5 10 -3 15 -9 12 -12z m-41 -18 c7 -18 0 -34 -15 -34 -6 0 -7 5 -4 10 3 6 1
10 -4 10 -6 0 -11 -6 -11 -12 0 -9 -4 -8 -10 2 -12 19 -13 33 -1 25 5 -3 12
-1 16 5 9 15 22 12 29 -6z m51 -4 c3 -6 -1 -7 -9 -4 -18 7 -21 14 -7 14 6 0
13 -4 16 -10z m565 -30 c0 -5 -5 -10 -11 -10 -5 0 -7 5 -4 10 3 6 8 10 11 10
2 0 4 -4 4 -10z m-525 -49 c3 -5 1 -12 -5 -16 -5 -3 -10 1 -10 9 0 18 6 21 15
7z m-21 -53 c-3 -4 -9 -8 -15 -8 -5 0 -9 4 -9 8 0 5 7 9 15 9 8 0 12 -4 9 -9z
m436 -32 c0 -2 -7 -7 -16 -10 -8 -3 -12 -2 -9 4 6 10 25 14 25 6z m-377 -71
c-10 -7 -20 -12 -21 -10 -7 7 23 33 31 28 5 -3 0 -11 -10 -18z m107 21 c0 -2
-7 -7 -16 -10 -8 -3 -12 -2 -9 4 6 10 25 14 25 6z m-40 -51 c0 -9 -6 -12 -15
-9 -8 4 -12 10 -9 15 8 14 24 10 24 -6z m226 -8 c4 -4 1 -7 -7 -8 -8 0 -26 -3
-41 -5 -16 -3 -28 0 -28 5 0 16 62 23 76 8z m-106 -52 c-9 -11 -10 -18 -1 -28
11 -14 5 -27 -12 -27 -5 0 -7 7 -3 15 3 9 0 15 -9 15 -7 0 -17 4 -20 10 -3 5
0 7 8 4 8 -3 20 2 27 11 7 8 15 15 17 15 3 0 0 -7 -7 -15z"/>
<path d="M7330 6414 c0 -8 5 -12 10 -9 6 3 10 10 10 16 0 5 -4 9 -10 9 -5 0
-10 -7 -10 -16z"/>
<path d="M6690 6249 c0 -5 5 -7 10 -4 6 3 10 8 10 11 0 2 -4 4 -10 4 -5 0 -10
-5 -10 -11z"/>
<path d="M6720 6248 c0 -6 3 -8 7 -5 3 4 12 2 20 -5 7 -6 16 -8 20 -4 3 3 1 6
-6 6 -7 0 -10 4 -7 8 2 4 -4 9 -15 9 -10 1 -19 -3 -19 -9z"/>
<path d="M6673 6212 c-13 -2 -23 -7 -23 -11 0 -8 47 -7 56 1 9 9 -9 14 -33 10z"/>
<path d="M6720 6209 c0 -15 18 -19 42 -10 12 6 19 11 13 12 -32 6 -55 5 -55
-2z"/>
<path d="M6755 6160 c27 -12 43 -12 25 0 -8 5 -22 9 -30 9 -10 0 -8 -3 5 -9z"/>
<path d="M7000 6011 c0 -6 4 -13 10 -16 6 -3 7 1 4 9 -7 18 -14 21 -14 7z"/>
<path d="M6940 5830 c0 -5 5 -10 11 -10 5 0 7 5 4 10 -3 6 -8 10 -11 10 -2 0
-4 -4 -4 -10z"/>
<path d="M6940 5801 c0 -5 5 -13 10 -16 6 -3 10 -2 10 4 0 5 -4 13 -10 16 -5
3 -10 2 -10 -4z"/>
<path d="M6978 5673 c7 -3 16 -2 19 1 4 3 -2 6 -13 5 -11 0 -14 -3 -6 -6z"/>
<path d="M6810 5558 c0 -11 12 -10 30 2 12 7 10 9 -8 7 -12 0 -22 -5 -22 -9z"/>
<path d="M5995 7260 c10 -11 20 -20 23 -20 3 0 -3 9 -13 20 -10 11 -20 20 -23
20 -3 0 3 -9 13 -20z"/>
<path d="M4975 7031 c-52 -5 -60 -9 -66 -31 -13 -46 -10 -100 5 -100 8 0 16
-5 18 -11 3 -10 222 113 233 132 4 5 -11 9 -33 9 -22 0 -52 2 -68 4 -16 2 -56
1 -89 -3z"/>
<path d="M4815 7005 c-66 -18 -163 -54 -169 -64 -3 -4 35 -22 84 -40 80 -30
91 -31 105 -18 8 9 24 19 35 22 17 5 20 15 20 61 0 60 1 60 -75 39z"/>
<path d="M5073 6947 c-157 -93 -158 -99 -18 -160 165 -73 173 -75 190 -50 8
11 26 24 40 27 25 6 25 7 25 120 l0 114 -50 11 c-28 6 -54 11 -58 10 -4 0 -62
-32 -129 -72z"/>
<path d="M5320 6883 l0 -109 30 -22 c17 -13 30 -30 30 -38 0 -14 19 -15 168
-9 92 4 169 9 171 11 16 15 -210 204 -243 204 -6 0 -35 -37 -64 -81 -29 -45
-55 -79 -58 -76 -3 2 20 41 51 85 30 44 55 82 55 85 0 7 -82 45 -114 53 l-26
6 0 -109z"/>
<path d="M4560 6888 c-68 -45 -67 -43 -73 -115 -3 -46 -2 -52 20 -62 13 -6 28
-21 34 -34 9 -21 24 -25 166 -46 151 -22 157 -22 173 -4 12 14 15 33 12 85 -3
59 -6 67 -27 72 -13 3 -28 19 -35 38 -8 18 -14 34 -14 35 -1 1 -45 17 -98 36
l-96 35 -62 -40z"/>
<path d="M4441 6785 c-17 -20 -31 -40 -31 -45 0 -13 38 -32 50 -25 10 6 25 93
18 101 -3 2 -19 -11 -37 -31z"/>
<path d="M4929 6796 c-22 -19 -24 -27 -21 -89 3 -62 6 -69 31 -82 25 -13 39
-11 149 18 133 36 160 50 121 66 -13 5 -76 31 -140 58 l-116 50 -24 -21z"/>
<path d="M4364 6679 c-50 -80 -93 -210 -94 -283 0 -24 11 -13 76 79 93 133 95
138 83 156 -5 7 -9 24 -9 35 0 12 -7 25 -16 28 -9 4 -14 9 -11 13 4 3 13 0 22
-7 9 -7 19 -10 22 -6 8 8 -16 26 -34 26 -7 0 -24 -19 -39 -41z"/>
<path d="M5540 6690 c-174 -9 -160 -7 -160 -24 0 -8 -7 -21 -15 -30 -14 -14
-10 -25 35 -116 28 -55 57 -103 65 -106 17 -7 52 32 157 173 79 106 84 114 71
111 -5 -1 -73 -5 -153 -8z"/>
<path d="M5087 6631 c-59 -15 -110 -31 -114 -35 -15 -15 18 -24 108 -29 l97
-5 32 33 c34 35 35 65 3 65 -10 -1 -66 -13 -126 -29z"/>
<path d="M4536 6624 c-4 -11 26 -48 98 -122 l105 -107 10 28 c6 15 31 50 57
77 32 34 45 56 42 72 -3 21 -12 24 -138 45 -166 27 -166 27 -174 7z"/>
<path d="M5221 6586 l-33 -34 43 -20 c24 -10 46 -18 48 -16 12 10 11 88 -1 95
-19 13 -21 12 -57 -25z"/>
<path d="M5301 6553 l0 -58 60 -48 c33 -26 64 -45 70 -42 16 10 -92 205 -113
205 -15 0 -18 -9 -17 -57z"/>
<path d="M4353 6464 c-86 -125 -93 -139 -92 -182 2 -90 3 -91 130 -137 l116
-41 33 29 33 29 -45 216 c-39 189 -47 217 -64 219 -14 2 -41 -30 -111 -133z"/>
<path d="M4505 6578 c3 -13 21 -104 41 -203 44 -226 38 -208 78 -221 34 -10
37 -9 81 36 41 41 45 50 36 68 -6 11 -11 45 -11 74 l-1 53 -103 108 c-103 107
-131 127 -121 85z"/>
<path d="M4715 6179 c-44 -42 -45 -45 -33 -72 10 -21 18 -26 38 -23 14 3 64
10 112 16 l87 12 -47 25 c-26 13 -61 38 -79 55 l-32 30 -46 -43z"/>
<path d="M4270 6166 c0 -17 52 -165 64 -181 13 -18 17 -19 53 -6 107 39 122
48 119 77 -3 25 -13 31 -112 70 -108 43 -124 48 -124 40z"/>
<path d="M4823 6082 c-68 -8 -123 -19 -123 -24 0 -5 15 -15 33 -23 64 -26 337
-109 342 -103 4 3 -9 37 -28 75 -32 62 -67 97 -95 92 -4 -1 -62 -8 -129 -17z"/>
<path d="M5040 6065 c0 -16 51 -115 59 -115 10 0 56 69 50 75 -8 7 -109 45
-109 40z"/>
<path d="M4664 5998 l-30 -31 19 -73 c17 -63 23 -73 46 -79 14 -4 36 -16 48
-27 l23 -21 67 31 c38 17 104 47 147 67 47 21 75 40 70 45 -5 5 -83 32 -172
60 -90 28 -169 53 -175 55 -7 2 -26 -10 -43 -27z"/>
<path d="M5142 5975 c-19 -39 -20 -46 -7 -51 16 -6 189 23 213 36 12 6 -145
60 -174 60 -5 0 -20 -20 -32 -45z"/>
<path d="M4433 5981 c-35 -15 -65 -30 -69 -34 -18 -17 129 -177 194 -211 42
-22 51 -20 58 12 4 15 15 36 25 47 17 19 17 23 -4 98 -16 57 -26 77 -39 77
-23 0 -68 21 -68 32 0 14 -33 7 -97 -21z"/>
<path d="M5278 5926 c-59 -12 -109 -24 -112 -27 -6 -6 202 -71 428 -135 l118
-34 18 22 c17 22 17 23 -14 46 -17 13 -56 36 -87 52 -59 30 -229 101 -238 99
-3 -1 -54 -11 -113 -23z"/>
<path d="M4915 5818 c-77 -34 -143 -67 -147 -72 -10 -14 2 -18 162 -55 l134
-31 28 27 c27 28 27 28 16 98 -11 71 -22 95 -42 95 -6 0 -74 -28 -151 -62z"/>
<path d="M5122 5867 c-8 -9 -8 -32 0 -80 9 -57 15 -69 37 -80 14 -6 34 -28 43
-47 17 -33 26 -38 168 -86 144 -48 151 -49 167 -32 18 20 73 24 90 7 7 -7 23
5 55 41 44 51 45 52 33 88 l-13 37 -269 82 c-147 46 -275 83 -284 83 -9 0 -21
-6 -27 -13z"/>
<path d="M4605 5700 c3 -5 13 -10 21 -10 8 0 12 5 9 10 -3 6 -13 10 -21 10 -8
0 -12 -4 -9 -10z"/>
<path d="M4750 5696 c0 -23 49 -75 91 -96 21 -11 55 -20 76 -20 43 1 148 40
146 55 -2 10 -250 74 -290 75 -14 0 -23 -6 -23 -14z"/>
<path d="M4690 5671 c-23 -6 -22 -8 20 -25 25 -10 52 -21 60 -24 8 -3 2 9 -14
26 -17 18 -32 32 -35 31 -3 -1 -17 -4 -31 -8z"/>
<path d="M5690 5580 c-43 -51 -47 -80 -13 -81 10 0 79 -6 153 -13 74 -8 136
-12 138 -11 8 7 -39 84 -73 118 -26 27 -42 36 -54 31 -32 -14 -69 -16 -89 -5
-18 9 -26 4 -62 -39z"/>
<path d="M5195 5599 c-11 -16 106 -151 160 -184 62 -38 135 -110 156 -153 l16
-32 18 95 19 95 -22 23 c-12 13 -22 33 -22 44 0 19 -20 28 -153 72 -168 56
-163 55 -172 40z"/>
<path d="M5000 5581 l-55 -17 55 -21 c84 -31 121 -38 131 -22 16 25 9 44 -22
62 -37 21 -39 20 -109 -2z"/>
<path d="M5154 5566 c-3 -8 -4 -26 -2 -41 2 -22 14 -31 71 -55 75 -31 75 -34
-2 58 -47 55 -58 61 -67 38z"/>
<path d="M5652 5465 c-11 -24 -7 -31 59 -107 38 -45 77 -94 87 -110 11 -19 22
-26 33 -23 10 3 20 1 24 -5 3 -6 -3 -10 -14 -10 -17 0 -21 -6 -21 -34 0 -37
17 -57 30 -36 6 10 9 9 13 -1 4 -11 9 -10 21 5 20 25 20 40 0 61 -14 14 -15
18 -2 33 8 9 34 51 56 93 40 73 51 112 35 122 -5 3 -69 10 -143 17 -74 6 -142
13 -151 16 -10 3 -20 -5 -27 -21z"/>
<path d="M5593 5422 c-6 -4 -20 -55 -30 -115 -19 -106 -19 -107 0 -125 10 -9
27 -16 36 -15 9 1 55 5 102 8 113 9 120 13 86 64 -39 59 -157 191 -170 191 -7
0 -17 -4 -24 -8z"/>
<path d="M5940 5304 c-52 -101 -49 -117 24 -122 l46 -3 0 68 c0 76 -9 143 -19
143 -4 0 -26 -39 -51 -86z"/>
<path d="M4487 5223 c-13 -26 -42 -211 -34 -219 2 -2 29 35 60 82 45 68 57 94
57 125 0 38 -1 39 -35 39 -28 0 -37 -5 -48 -27z"/>
<path d="M4426 5149 c-10 -17 -32 -46 -49 -66 l-30 -34 25 -25 c39 -40 54 -24
68 68 6 44 10 82 8 84 -2 2 -12 -10 -22 -27z"/>
<path d="M5680 5158 c-106 -11 -126 -20 -94 -46 12 -9 42 -34 67 -55 44 -37
45 -38 87 -25 54 17 87 72 68 113 -6 14 -16 24 -22 24 -6 -1 -54 -6 -106 -11z"/>
<path d="M4527 5073 c-31 -48 -53 -91 -49 -95 5 -5 45 1 89 13 l81 22 -10 36
c-15 54 -39 111 -47 111 -4 0 -33 -39 -64 -87z"/>
<path d="M5902 5140 c-7 -12 -23 -20 -40 -20 -22 0 -30 -7 -45 -41 -17 -39
-17 -44 -2 -76 9 -18 13 -42 10 -52 -4 -15 7 -29 51 -60 43 -31 60 -38 66 -29
18 29 58 171 64 232 l7 66 -49 0 c-38 0 -52 -4 -62 -20z"/>
<path d="M4630 5139 c0 -26 32 -119 41 -119 5 0 16 12 25 26 17 25 17 26 -24
67 -28 28 -42 36 -42 26z"/>
<path d="M5520 5109 c0 -5 5 -7 10 -4 6 3 10 8 10 11 0 2 -4 4 -10 4 -5 0 -10
-5 -10 -11z"/>
<path d="M4296 4984 c-21 -24 -36 -47 -33 -50 10 -10 105 26 111 43 6 15 -19
54 -33 52 -3 0 -24 -21 -45 -45z"/>
<path d="M4297 4920 c-27 -5 -51 -11 -54 -14 -3 -3 8 -23 25 -46 l30 -41 41
47 c38 44 45 65 18 63 -7 -1 -34 -5 -60 -9z"/>
<path d="M4347 4845 l-38 -43 61 -64 c34 -35 59 -55 56 -45 -3 10 -6 59 -6
108 0 78 -2 89 -17 88 -10 0 -35 -20 -56 -44z"/>
<path d="M4720 4700 l0 -160 45 0 45 0 0 160 0 160 -45 0 -45 0 0 -160z"/>
<path d="M5821 4695 c-29 -33 -36 -45 -28 -45 2 0 18 18 36 40 40 49 34 53 -8
5z"/>
<path d="M5685 4620 c-16 -18 -20 -46 -7 -54 9 -5 72 41 72 54 0 16 -50 17
-65 0z"/>
<path d="M160 5526 c-13 -13 -13 -26 0 -26 6 0 10 7 10 16 0 8 4 13 9 9 5 -3
12 -2 15 3 7 12 -21 11 -34 -2z"/>
<path d="M5130 5150 c0 -22 -6 -55 -13 -73 -15 -34 -101 -152 -149 -203 l-29
-31 3 -139 3 -139 40 -13 c52 -18 291 -28 327 -13 18 7 30 20 33 38 4 15 13
41 22 56 8 16 13 39 10 53 -2 15 3 30 14 40 20 18 25 59 9 69 -11 7 -3 33 17
57 9 10 12 25 8 37 -6 20 -14 21 -116 21 -61 0 -119 5 -130 10 -23 13 -24 43
-4 100 19 55 19 120 -1 148 -25 36 -44 28 -44 -18z"/>
<path d="M2795 2660 c-3 -5 1 -10 9 -10 8 0 18 5 21 10 3 6 -1 10 -9 10 -8 0
-18 -4 -21 -10z"/>
<path d="M4676 1307 c3 -10 9 -15 12 -12 3 3 0 11 -7 18 -10 9 -11 8 -5 -6z"/>
<path d="M168 5426 c-18 -13 -12 -29 11 -34 12 -3 12 -1 0 14 -13 16 -12 17
14 12 17 -3 27 -1 27 6 0 16 -31 17 -52 2z"/>
<path d="M350 5420 c0 -11 4 -20 9 -20 5 0 7 9 4 20 -3 11 -7 20 -9 20 -2 0
-4 -9 -4 -20z"/>
<path d="M5 5400 c-3 -5 -1 -10 4 -10 6 0 11 5 11 10 0 6 -2 10 -4 10 -3 0 -8
-4 -11 -10z"/>
<path d="M131 5377 c-13 -21 -12 -21 5 -5 10 10 16 20 13 22 -3 3 -11 -5 -18
-17z"/>
<path d="M95 5380 c-3 -5 -1 -10 4 -10 6 0 11 5 11 10 0 6 -2 10 -4 10 -3 0
-8 -4 -11 -10z"/>
<path d="M326 5382 c-3 -5 1 -9 9 -9 8 0 12 4 9 9 -3 4 -7 8 -9 8 -2 0 -6 -4
-9 -8z"/>
<path d="M150 5359 c0 -5 5 -7 10 -4 6 3 10 8 10 11 0 2 -4 4 -10 4 -5 0 -10
-5 -10 -11z"/>
<path d="M255 5350 c-3 -5 -2 -10 4 -10 5 0 13 5 16 10 3 6 2 10 -4 10 -5 0
-13 -4 -16 -10z"/>
<path d="M440 5251 c0 -6 4 -13 10 -16 6 -3 7 1 4 9 -7 18 -14 21 -14 7z"/>
<path d="M439 5203 c-13 -16 -12 -17 4 -4 16 13 21 21 13 21 -2 0 -10 -8 -17
-17z"/>
<path d="M521 5174 c-1 -6 6 -17 14 -24 8 -7 15 -9 15 -4 0 4 5 3 12 -4 8 -8
8 -15 -3 -28 -13 -16 -12 -16 13 0 l27 18 -25 26 c-19 21 -26 24 -33 13 -7
-11 -9 -11 -14 0 -3 8 -6 9 -6 3z"/>
<path d="M476 5045 c4 -8 7 -15 9 -15 2 0 5 7 9 15 3 9 0 15 -9 15 -9 0 -12
-6 -9 -15z"/>
<path d="M575 5044 c9 -9 19 -13 23 -10 3 4 0 11 -8 16 -24 15 -33 11 -15 -6z"/>
<path d="M620 5040 c0 -5 5 -10 10 -10 6 0 10 5 10 10 0 6 -4 10 -10 10 -5 0
-10 -4 -10 -10z"/>
<path d="M641 4903 c-9 -16 -12 -16 -21 -3 -8 13 -10 13 -10 -1 0 -25 28 -32
35 -9 3 10 14 21 23 23 16 4 16 5 0 6 -9 0 -22 -7 -27 -16z"/>
<path d="M805 4650 c-3 -5 -1 -10 4 -10 6 0 11 5 11 10 0 6 -2 10 -4 10 -3 0
-8 -4 -11 -10z"/>
<path d="M917 4599 c7 -7 15 -10 18 -7 3 3 -2 9 -12 12 -14 6 -15 5 -6 -5z"/>
<path d="M986 4568 c3 -5 10 -6 15 -3 13 9 11 12 -6 12 -8 0 -12 -4 -9 -9z"/>
<path d="M916 4561 c-3 -5 1 -11 9 -15 9 -3 15 0 15 9 0 16 -16 20 -24 6z"/>
<path d="M1236 4375 c-3 -8 -1 -15 4 -15 6 0 10 7 10 15 0 8 -2 15 -4 15 -2 0
-6 -7 -10 -15z"/>
<path d="M1131 4371 c-7 -5 -9 -11 -4 -14 6 -4 19 0 29 8 15 11 16 14 4 15 -8
0 -21 -4 -29 -9z"/>
<path d="M1380 4345 c-7 -9 -8 -15 -2 -15 5 0 8 -10 4 -22 -3 -14 -2 -19 6
-14 8 5 12 0 12 -13 0 -10 6 -22 13 -24 9 -4 9 -8 -1 -15 -11 -7 -10 -10 3
-16 24 -9 38 3 24 20 -9 11 -7 14 14 14 14 0 29 5 32 10 4 6 -8 10 -29 10 -19
0 -38 5 -41 10 -4 6 -3 9 2 8 4 -1 18 3 31 10 18 11 22 10 22 -2 0 -8 8 -14
19 -13 13 1 17 7 13 21 -3 12 -7 15 -10 8 -3 -10 -9 -9 -25 5 -12 10 -17 12
-12 4 6 -11 4 -13 -8 -8 -10 3 -17 2 -17 -3 0 -6 -5 -10 -11 -10 -5 0 -8 3 -5
8 2 4 -2 15 -9 25 -11 15 -14 15 -25 2z"/>
<path d="M1540 4322 c0 -6 -8 -9 -17 -6 -15 5 -15 3 1 -10 25 -20 35 -20 32
-1 -3 18 -16 32 -16 17z"/>
<path d="M1136 4308 c3 -5 10 -6 15 -3 13 9 11 12 -6 12 -8 0 -12 -4 -9 -9z"/>
<path d="M1494 4243 c6 -12 -5 -18 -26 -14 -5 0 -8 -3 -8 -8 0 -6 23 -10 51
-9 50 0 51 0 30 19 -23 22 -36 25 -25 7 5 -8 0 -7 -11 2 -11 9 -16 10 -11 3z"/>
<path d="M1607 4226 c-3 -8 1 -20 9 -26 11 -10 14 -9 14 8 0 25 -16 37 -23 18z"/>
<path d="M1558 4173 c7 -3 16 -2 19 1 4 3 -2 6 -13 5 -11 0 -14 -3 -6 -6z"/>
<path d="M1543 4123 c-19 -7 -16 -33 5 -33 15 -1 14 -3 -5 -19 -18 -15 -20
-20 -8 -25 8 -3 14 0 12 7 -1 7 6 11 16 9 17 -3 17 -1 3 26 -8 16 -12 32 -9
36 7 7 4 7 -14 -1z"/>
<path d="M1537 3999 c-5 -17 -3 -17 22 -2 14 10 27 18 29 19 2 1 -8 2 -22 2
-15 0 -26 -7 -29 -19z"/>
<path d="M1666 3955 c4 -8 8 -15 10 -15 2 0 4 7 4 15 0 8 -4 15 -10 15 -5 0
-7 -7 -4 -15z"/>
<path d="M1810 3949 c0 -5 5 -9 11 -9 8 0 7 -6 -2 -17 -11 -15 -10 -14 9 1 27
23 27 22 2 29 -11 3 -20 1 -20 -4z"/>
<path d="M1696 3934 c-4 -9 -4 -19 -1 -22 2 -3 7 3 11 12 4 9 4 19 1 22 -2 3
-7 -3 -11 -12z"/>
<path d="M1960 3760 c-13 -8 -13 -10 2 -10 9 0 20 5 23 10 8 13 -5 13 -25 0z"/>
<path d="M1880 3741 c0 -5 5 -13 10 -16 6 -3 10 -2 10 4 0 5 -4 13 -10 16 -5
3 -10 2 -10 -4z"/>
<path d="M1942 3713 c-13 -5 -7 -23 9 -23 6 0 8 4 5 9 -4 5 0 12 6 14 7 3 9 5
3 5 -5 0 -16 -2 -23 -5z"/>
<path d="M2020 3702 c0 -10 7 -19 14 -19 11 0 13 5 5 19 -5 10 -12 18 -14 18
-3 0 -5 -8 -5 -18z"/>
<path d="M2055 3650 c-4 -6 -11 -7 -17 -4 -7 4 -8 2 -4 -5 6 -9 11 -9 22 0 14
11 18 19 10 19 -3 0 -8 -5 -11 -10z"/>
<path d="M2089 3627 c6 -14 8 -27 5 -29 -2 -3 3 -5 11 -5 8 0 15 4 15 9 0 4
-4 8 -10 8 -5 0 -10 6 -10 14 0 8 -4 18 -10 21 -7 4 -7 -2 -1 -18z"/>
<path d="M2015 3620 c3 -5 8 -10 11 -10 2 0 4 5 4 10 0 6 -5 10 -11 10 -5 0
-7 -4 -4 -10z"/>
<path d="M2137 3593 c-10 -9 -9 -23 1 -23 5 0 9 7 9 15 0 17 -1 18 -10 8z"/>
<path d="M2255 3590 c-3 -5 -1 -10 4 -10 6 0 11 5 11 10 0 6 -2 10 -4 10 -3 0
-8 -4 -11 -10z"/>
<path d="M2275 3495 l-30 -13 33 -1 c22 -1 32 4 32 14 0 8 -1 15 -2 15 -2 -1
-16 -7 -33 -15z"/>
<path d="M2196 3488 c3 -5 10 -6 15 -3 5 4 9 1 9 -5 0 -6 5 -8 10 -5 15 9 2
24 -20 22 -10 -1 -16 -5 -14 -9z"/>
<path d="M2360 3446 c0 -2 7 -7 16 -10 8 -3 12 -2 9 4 -6 10 -25 14 -25 6z"/>
<path d="M2315 3410 c-3 -5 -1 -10 4 -10 6 0 11 5 11 10 0 6 -2 10 -4 10 -3 0
-8 -4 -11 -10z"/>
<path d="M2387 3409 c7 -7 15 -10 18 -7 3 3 -2 9 -12 12 -14 6 -15 5 -6 -5z"/>
<path d="M2330 3290 c0 -5 5 -10 11 -10 5 0 7 5 4 10 -3 6 -8 10 -11 10 -2 0
-4 -4 -4 -10z"/>
<path d="M2374 3182 c3 -5 0 -13 -6 -15 -9 -4 -10 -6 -1 -6 17 -1 25 16 12 25
-7 4 -9 3 -5 -4z"/>
<path d="M2467 2855 c12 -21 73 -79 73 -69 0 4 -19 25 -42 48 -22 22 -36 32
-31 21z"/>
<path d="M2416 2533 c7 -29 34 -66 34 -47 0 13 -30 74 -36 74 -2 0 -1 -12 2
-27z"/>
<path d="M2460 2471 c0 -10 19 -25 25 -20 1 2 -3 10 -11 17 -8 7 -14 8 -14 3z"/>
<path d="M3185 2389 c-4 -6 -5 -12 -2 -15 2 -3 7 2 10 11 7 17 1 20 -8 4z"/>
<path d="M3130 2340 c0 -5 5 -10 10 -10 6 0 10 5 10 10 0 6 -4 10 -10 10 -5 0
-10 -4 -10 -10z"/>
<path d="M3210 2340 c0 -5 5 -10 10 -10 6 0 10 5 10 10 0 6 -4 10 -10 10 -5 0
-10 -4 -10 -10z"/>
<path d="M3310 2321 c0 -9 16 -18 33 -19 5 0 17 -11 28 -23 10 -12 19 -17 19
-12 0 6 -7 16 -15 23 -8 7 -12 17 -8 24 4 6 -2 4 -12 -4 -17 -14 -18 -13 -12
3 5 12 1 17 -13 17 -11 0 -20 -4 -20 -9z"/>
<path d="M3410 2232 c0 -10 8 -12 33 -7 49 11 53 22 7 21 -27 0 -40 -5 -40
-14z"/>
<path d="M3410 2190 c-12 -8 -10 -10 8 -10 13 0 20 4 17 10 -7 12 -6 12 -25 0z"/>
<path d="M3487 2183 c-10 -9 -9 -23 2 -23 5 0 11 7 15 15 5 15 -5 20 -17 8z"/>
<path d="M3696 2182 c-3 -6 -1 -14 5 -17 14 -9 20 -2 10 14 -6 8 -11 9 -15 3z"/>
<path d="M3750 2131 c0 -6 5 -13 12 -17 7 -5 8 -3 3 6 -5 8 -4 11 3 6 6 -4 9
-13 5 -21 -3 -8 -1 -15 5 -15 15 0 22 26 9 39 -13 13 -37 15 -37 2z"/>
<path d="M3675 2120 c-18 -8 -18 -9 5 -10 14 -1 33 -3 43 -5 21 -4 23 11 1 19
-19 7 -24 7 -49 -4z"/>
<path d="M3720 2030 c-30 -3 -50 -8 -45 -11 12 -8 122 -5 130 3 10 10 -28 13
-85 8z"/>
<path d="M3820 1980 c0 -5 5 -10 11 -10 5 0 7 5 4 10 -3 6 -8 10 -11 10 -2 0
-4 -4 -4 -10z"/>
<path d="M3821 1881 c-1 -23 0 -24 19 -6 11 10 18 21 15 24 -4 3 -10 -1 -14
-8 -7 -11 -10 -11 -14 0 -3 8 -6 3 -6 -10z"/>
<path d="M4040 1877 c0 -20 -11 -22 -28 -5 -9 9 -12 8 -12 -4 0 -21 32 -28 49
-11 10 11 10 18 2 26 -8 8 -11 7 -11 -6z"/>
<path d="M3953 1873 c-18 -7 -16 -20 2 -20 8 0 15 6 15 14 0 7 -1 13 -2 12 -2
0 -9 -3 -15 -6z"/>
<path d="M3780 1859 c0 -5 5 -7 10 -4 6 3 10 8 10 11 0 2 -4 4 -10 4 -5 0 -10
-5 -10 -11z"/>
<path d="M4063 1853 c-7 -2 -13 -13 -13 -24 0 -13 5 -17 17 -12 11 4 13 8 5
11 -10 3 -10 7 -1 18 12 15 11 15 -8 7z"/>
<path d="M3896 1815 c4 -9 18 -13 45 -11 31 3 37 0 28 -10 -8 -10 -3 -10 26
-1 23 7 31 13 23 18 -7 4 -16 5 -20 3 -4 -3 -8 -1 -8 5 0 10 -18 10 -37 -2 -6
-4 -23 -3 -37 2 -20 8 -24 7 -20 -4z"/>
<path d="M3991 1776 c-10 -12 -8 -13 9 -9 25 7 37 23 17 23 -8 0 -20 -6 -26
-14z"/>
<path d="M4115 1740 c-8 -13 5 -13 25 0 13 8 13 10 -2 10 -9 0 -20 -4 -23 -10z"/>
<path d="M4170 1730 c-12 -7 -10 -9 7 -7 12 0 19 5 17 9 -6 10 -6 10 -24 -2z"/>
<path d="M4100 1701 c0 -11 4 -22 9 -25 4 -3 6 6 3 19 -5 30 -12 33 -12 6z"/>
<path d="M4170 1620 c0 -5 5 -10 11 -10 5 0 7 5 4 10 -3 6 -8 10 -11 10 -2 0
-4 -4 -4 -10z"/>
<path d="M4420 1565 c0 -10 29 -24 34 -17 3 6 -3 12 -14 15 -11 3 -20 4 -20 2z"/>
<path d="M4265 1550 c-17 -8 -17 -9 7 -7 15 1 24 5 22 9 -3 4 -6 8 -7 7 -1 0
-11 -4 -22 -9z"/>
<path d="M4335 1540 c-3 -5 -1 -10 4 -10 6 0 11 5 11 10 0 6 -2 10 -4 10 -3 0
-8 -4 -11 -10z"/>
<path d="M4490 1481 c0 -5 5 -13 10 -16 6 -3 10 -2 10 4 0 5 -4 13 -10 16 -5
3 -10 2 -10 -4z"/>
<path d="M4575 1300 c3 -5 8 -10 11 -10 2 0 4 5 4 10 0 6 -5 10 -11 10 -5 0
-7 -4 -4 -10z"/>
<path d="M4641 1155 c34 -32 52 -38 29 -10 -10 12 -10 15 1 15 25 0 -10 24
-37 26 l-26 1 33 -32z"/>
<path d="M4550 1078 c0 -4 4 -8 9 -8 6 0 12 4 15 8 3 5 -1 9 -9 9 -8 0 -15 -4
-15 -9z"/>
<path d="M4760 1070 c0 -5 5 -10 10 -10 6 0 10 5 10 10 0 6 -4 10 -10 10 -5 0
-10 -4 -10 -10z"/>
<path d="M4730 1020 c-9 -6 -10 -10 -3 -10 6 0 15 5 18 10 8 12 4 12 -15 0z"/>
<path d="M4832 979 c-17 -27 14 -32 31 -6 13 21 13 23 -3 23 -10 0 -23 -8 -28
-17z"/>
<path d="M4815 940 c3 -5 8 -10 11 -10 2 0 4 5 4 10 0 6 -5 10 -11 10 -5 0 -7
-4 -4 -10z"/>
<path d="M4700 930 c0 -5 5 -10 11 -10 5 0 7 5 4 10 -3 6 -8 10 -11 10 -2 0
-4 -4 -4 -10z"/>
<path d="M4940 861 c0 -5 7 -12 16 -15 14 -5 15 -4 4 9 -14 17 -20 19 -20 6z"/>
<path d="M4980 850 c0 -5 5 -10 11 -10 5 0 7 5 4 10 -3 6 -8 10 -11 10 -2 0
-4 -4 -4 -10z"/>
<path d="M4976 821 c-3 -5 0 -11 7 -14 8 -3 14 1 14 9 0 16 -13 19 -21 5z"/>
<path d="M5060 770 c0 -3 4 -12 10 -20 8 -12 10 -12 16 3 3 9 10 15 14 12 5
-3 11 -2 14 3 2 4 -9 8 -25 7 -16 0 -29 -2 -29 -5z"/>
<path d="M5148 752 c-29 -6 -21 -21 9 -18 15 2 29 9 31 17 3 12 2 12 -6 0 -5
-7 -11 -9 -13 -4 -2 5 -12 7 -21 5z"/>
<path d="M5213 753 c-18 -7 -16 -20 2 -20 8 0 15 6 15 14 0 7 -1 13 -2 12 -2
0 -9 -3 -15 -6z"/>
<path d="M5315 700 c-18 -8 -17 -9 8 -9 15 -1 27 4 27 9 0 12 -8 12 -35 0z"/>
<path d="M5185 560 c-3 -6 1 -7 9 -4 18 7 21 14 7 14 -6 0 -13 -4 -16 -10z"/>
<path d="M5266 462 c-3 -4 4 -9 15 -9 23 -2 25 3 4 10 -8 4 -16 3 -19 -1z"/>
<path d="M5266 355 c-9 -26 -7 -32 5 -12 6 10 9 21 6 23 -2 3 -7 -2 -11 -11z"/>
<path d="M5330 354 c0 -8 5 -12 10 -9 6 3 10 10 10 16 0 5 -4 9 -10 9 -5 0
-10 -7 -10 -16z"/>
<path d="M5290 356 c0 -2 7 -7 16 -10 8 -3 12 -2 9 4 -6 10 -25 14 -25 6z"/>
<path d="M5426 321 c-4 -7 -5 -15 -2 -18 9 -9 19 4 14 18 -4 11 -6 11 -12 0z"/>
<path d="M5356 311 c-7 -11 22 -36 31 -27 3 3 1 6 -6 6 -7 0 -10 4 -6 9 3 5 1
12 -4 15 -5 4 -12 2 -15 -3z"/>
<path d="M5420 276 c0 -2 7 -6 15 -10 8 -3 15 -1 15 4 0 6 -7 10 -15 10 -8 0
-15 -2 -15 -4z"/>
<path d="M5330 259 c0 -6 9 -9 19 -6 12 3 22 -1 25 -9 3 -8 11 -14 17 -14 8 0
9 4 0 13 -6 8 -8 17 -4 20 3 4 -8 7 -25 7 -18 0 -32 -5 -32 -11z"/>
<path d="M5412 228 c2 -6 10 -13 16 -14 7 -1 8 0 2 3 -5 2 -8 9 -4 14 3 5 0 9
-6 9 -7 0 -10 -5 -8 -12z"/>
<path d="M5450 208 c0 -4 4 -8 9 -8 6 0 12 4 15 8 3 5 -1 9 -9 9 -8 0 -15 -4
-15 -9z"/>
<path d="M5468 183 c7 -3 16 -2 19 1 4 3 -2 6 -13 5 -11 0 -14 -3 -6 -6z"/>
<path d="M5550 183 c0 -6 5 -15 10 -18 16 -10 12 -25 -7 -25 -15 0 -14 -2 3
-14 30 -23 39 -1 16 36 -12 18 -22 28 -22 21z"/>
<path d="M5500 130 c20 -13 33 -13 25 0 -3 6 -14 10 -23 10 -15 0 -15 -2 -2
-10z"/>
<path d="M5356 95 c-3 -9 0 -15 9 -15 8 0 15 7 15 15 0 8 -4 15 -9 15 -5 0
-11 -7 -15 -15z"/>
<path d="M5489 33 c-13 -16 -12 -17 4 -4 16 13 21 21 13 21 -2 0 -10 -8 -17
-17z"/>
<path d="M5665 39 c-10 -15 3 -25 16 -12 7 7 7 13 1 17 -6 3 -14 1 -17 -5z"/>
<path d="M5615 19 c-4 -6 -5 -12 -2 -15 2 -3 7 2 10 11 7 17 1 20 -8 4z"/>
</g>
</svg>
